<svg width="47" height="13" viewBox="0 0 47 13" fill="none" xmlns="http://www.w3.org/2000/svg">
<path d="M10.4183 5.92954C10.4183 4.9446 10.6681 4.16235 11.1677 3.58281C11.6673 3.00326 12.3882 2.71349 13.3303 2.71349C13.8727 2.71349 14.3324 2.79771 14.7092 2.96614C15.0861 3.13458 15.3516 3.37868 15.5057 3.69843C15.6085 3.90969 15.5914 4.05244 15.4543 4.12667L14.9405 4.40074C14.7606 4.4978 14.6121 4.44356 14.4951 4.23801C14.4209 4.10668 14.2824 3.9882 14.0797 3.88257C13.8799 3.77694 13.6443 3.72412 13.3731 3.72412C12.7736 3.72412 12.3539 3.91398 12.1141 4.29368C11.8743 4.67053 11.7544 5.21582 11.7544 5.92954C11.7544 6.64327 11.8743 7.18999 12.1141 7.56969C12.3539 7.94654 12.7736 8.13496 13.3731 8.13496C13.6957 8.13496 13.9669 8.06216 14.1868 7.91656C14.4094 7.77096 14.5636 7.6325 14.6492 7.50117C14.7891 7.28705 14.9376 7.23281 15.0946 7.33844L15.6085 7.68103C15.7484 7.77524 15.7627 7.91799 15.6513 8.10927C15.4857 8.39476 15.2017 8.63885 14.7991 8.84155C14.3966 9.04425 13.907 9.1456 13.3303 9.1456C12.4024 9.1456 11.6844 8.85583 11.1763 8.27628C10.6709 7.69673 10.4183 6.91449 10.4183 5.92954ZM16.4907 5.92954C16.4907 4.9446 16.7448 4.16235 17.2529 3.58281C17.7611 3.00326 18.4863 2.71349 19.4284 2.71349C20.3705 2.71349 21.0956 3.00326 21.6038 3.58281C22.112 4.16235 22.3661 4.9446 22.3661 5.92954C22.3661 6.91449 22.112 7.69673 21.6038 8.27628C21.0956 8.85583 20.3705 9.1456 19.4284 9.1456C18.4863 9.1456 17.7611 8.85583 17.2529 8.27628C16.7448 7.69673 16.4907 6.91449 16.4907 5.92954ZM17.8268 5.92954C17.8268 6.64327 17.9538 7.18999 18.2079 7.56969C18.4648 7.94654 18.8717 8.13496 19.4284 8.13496C19.9851 8.13496 20.3905 7.94654 20.6446 7.56969C20.9015 7.18999 21.03 6.64327 21.03 5.92954C21.03 5.21582 20.9015 4.67053 20.6446 4.29368C20.3905 3.91398 19.9851 3.72412 19.4284 3.72412C18.8717 3.72412 18.4648 3.91398 18.2079 4.29368C17.9538 4.67053 17.8268 5.21582 17.8268 5.92954ZM23.7193 9C23.5195 9 23.4195 8.89294 23.4195 8.67882V3.18026C23.4195 2.96614 23.5195 2.85909 23.7193 2.85909H24.9612C25.1268 2.85909 25.2453 2.97328 25.3166 3.20168L26.4771 6.95731C26.5285 7.12004 26.5642 7.25422 26.5842 7.35985C26.6042 7.46263 26.6213 7.58539 26.6356 7.72814H26.6613C26.6756 7.58539 26.6927 7.46263 26.7127 7.35985C26.7327 7.25422 26.7683 7.12004 26.8197 6.95731L27.9803 3.20168C28.0516 2.97328 28.1701 2.85909 28.3357 2.85909H29.5776C29.7774 2.85909 29.8773 2.96614 29.8773 3.18026V8.67882C29.8773 8.89294 29.7774 9 29.5776 9H28.9267C28.7268 9 28.6269 8.89294 28.6269 8.67882V5.14159C28.6269 4.97029 28.634 4.799 28.6483 4.6277H28.6183L27.3807 8.65313C27.3094 8.88438 27.1866 9 27.0124 9H26.2844C26.1103 9 25.9875 8.88438 25.9162 8.65313L24.6786 4.6277H24.6486C24.6629 4.799 24.67 4.97029 24.67 5.14159V8.67882C24.67 8.89294 24.5701 9 24.3702 9H23.7193ZM31.2477 6.44343V3.09462C31.2477 2.9376 31.3476 2.85909 31.5475 2.85909H32.1984C32.3982 2.85909 32.4982 2.9376 32.4982 3.09462V6.4006C32.4982 7.17143 32.6109 7.65391 32.8365 7.84804C33.0649 8.03932 33.3218 8.13496 33.6073 8.13496C33.8928 8.13496 34.1483 8.03932 34.3738 7.84804C34.6022 7.65391 34.7164 7.17143 34.7164 6.4006V3.09462C34.7164 2.9376 34.8163 2.85909 35.0162 2.85909H35.6671C35.867 2.85909 35.9669 2.9376 35.9669 3.09462V6.44343C35.9669 7.44265 35.7556 8.14353 35.3331 8.54607C34.9106 8.94576 34.3353 9.1456 33.6073 9.1456C32.8793 9.1456 32.304 8.94576 31.8815 8.54607C31.459 8.14353 31.2477 7.44265 31.2477 6.44343ZM37.637 9C37.4372 9 37.3372 8.89294 37.3372 8.67882V3.18026C37.3372 2.96614 37.4372 2.85909 37.637 2.85909H38.2708C38.5163 2.85909 38.7019 2.95901 38.8275 3.15885L41.0115 6.66611H41.0415C41.0272 6.49482 41.0201 6.32352 41.0201 6.15223V3.18026C41.0201 2.96614 41.12 2.85909 41.3198 2.85909H41.9708C42.1706 2.85909 42.2705 2.96614 42.2705 3.18026V8.67882C42.2705 8.89294 42.1706 9 41.9708 9H41.3798C41.1343 9 40.9487 8.90008 40.8231 8.70023L38.5962 5.12874H38.5663C38.5805 5.30003 38.5877 5.47133 38.5877 5.64262V8.67882C38.5877 8.89294 38.4878 9 38.2879 9H37.637Z" fill="#323232"/>
<rect x="5.58658" y="1.48695" width="2.93131" height="7.30993" rx="1.46566" transform="rotate(31.8585 5.58658 1.48695)" fill="#4A3503"/>
<rect x="0.583344" y="2.14522" width="2.71732" height="7.53547" rx="1.35866" transform="rotate(-15.9172 0.583344 2.14522)" fill="#7B61FF"/>
<rect x="4.48605" y="2.21887" width="2.71732" height="7.53547" rx="1.35866" transform="rotate(-15.9172 4.48605 2.21887)" fill="#FE9563"/>
</svg>
