<svg width="572" height="548" viewBox="0 0 572 548" fill="none" xmlns="http://www.w3.org/2000/svg">
<path d="M63.1625 385.44L47.7687 385.793L39.8955 385.91C37.3103 385.91 34.6075 385.91 32.0223 386.028H31.5523V385.558L31.4348 372.397V371.809H32.0223L47.5336 371.927C52.7041 371.927 57.8745 372.044 63.045 372.162H63.3975V372.514C63.3975 374.747 63.28 376.98 63.28 379.212L63.1625 385.44ZM63.1625 385.44L63.045 378.742C63.045 376.51 62.9275 374.394 62.9275 372.279L63.28 372.632C58.1095 372.749 52.9391 372.867 47.7687 372.867L32.2573 372.984L32.8449 372.397L32.7274 385.558L32.2573 385.088C34.8425 385.088 37.4278 385.088 39.8955 385.205L47.6511 385.323L63.1625 385.44Z" fill="#EBEBEB"/>
<path d="M45.7712 402.01L30.3774 402.362L22.5042 402.48C19.919 402.48 17.2162 402.48 14.631 402.597H14.161V402.127L14.0435 388.966V388.378H14.631L30.1423 388.496C35.3128 388.496 40.4832 388.613 45.6537 388.731H46.0062V389.083C46.0062 391.316 45.8887 393.549 45.8887 395.782L45.7712 402.01ZM45.7712 402.01L45.6537 395.312C45.6537 393.079 45.5362 390.964 45.5362 388.848L45.8887 389.201C40.7182 389.319 35.5478 389.436 30.3774 389.436L14.866 389.554L15.4536 388.966L15.2186 402.01L14.7485 401.54C17.3337 401.54 19.919 401.54 22.3867 401.657L30.1423 401.775L45.7712 402.01Z" fill="#EBEBEB"/>
<path d="M80.5539 388.848H49.4137V402.009H80.5539V388.848Z" fill="#EBEBEB"/>
<path d="M434.378 199.892L418.985 200.245L411.111 200.362C408.526 200.362 405.823 200.362 403.238 200.48H402.768V200.01L402.651 186.849V186.261H403.238L418.749 186.379C423.92 186.379 429.09 186.496 434.261 186.614H434.613V186.966C434.613 189.199 434.496 191.431 434.496 193.664L434.378 199.892ZM434.378 199.892L434.261 193.194C434.261 190.961 434.143 188.846 434.143 186.731L434.496 187.084C429.325 187.201 424.155 187.319 418.985 187.319L403.473 187.436L404.061 186.849L403.943 200.01L403.473 199.54C406.058 199.54 408.644 199.54 411.111 199.657L418.867 199.775L434.378 199.892Z" fill="#FE9563"/>
<path d="M416.987 216.46L401.593 216.813L393.72 216.93C391.134 216.93 388.432 216.93 385.846 217.048H385.376V216.578L385.259 203.417V202.829H385.846L401.358 202.947C406.528 202.947 411.699 203.064 416.869 203.182H417.222V203.534C417.222 205.767 417.104 208 417.104 210.232L416.987 216.46ZM416.987 216.46L416.869 209.762C416.869 207.529 416.751 205.414 416.751 203.299L417.104 203.652C411.934 203.769 406.763 203.887 401.593 203.887L386.081 204.004L386.669 203.417L386.551 216.578L386.081 216.108C388.667 216.108 391.252 216.108 393.72 216.225L401.475 216.343L416.987 216.46Z" fill="#FE9563"/>
<path d="M451.768 203.417H420.628V216.578H451.768V203.417Z" fill="#FE9563"/>
<path d="M481.616 388.848H450.476V402.009H481.616V388.848Z" fill="#EBEBEB"/>
<path d="M481.616 58.4094H450.476V71.5706H481.616V58.4094Z" fill="#FE9563"/>
<path d="M499.008 88.14L483.615 88.4925L475.741 88.61C473.156 88.61 470.453 88.61 467.868 88.7275H467.398V88.2575L467.281 75.0963V74.5088H467.868L483.38 74.6263C488.55 74.6263 493.72 74.7438 498.891 74.8613H499.243V75.2139C499.243 77.4465 499.126 79.6792 499.126 81.9119L499.008 88.14ZM499.008 88.14L498.891 81.4419C498.891 79.2092 498.773 77.094 498.773 74.9788L499.126 75.3314C493.955 75.4489 488.785 75.5664 483.615 75.5664L468.103 75.6839L468.691 75.0963L468.573 88.2575L468.103 87.7874C470.688 87.7874 473.274 87.7874 475.741 87.9049L483.497 88.0225L499.008 88.14Z" fill="#EBEBEB"/>
<path d="M45.7709 71.5706L30.3771 71.9231L22.5039 72.0407C19.9187 72.0407 17.216 72.0407 14.6308 72.1582H14.1607V71.6881L14.0432 58.527V57.9395H14.6308L30.1421 58.057C35.3125 58.057 40.483 58.1745 45.6534 58.292H46.0059V58.6445C46.0059 60.8772 45.8884 63.1099 45.8884 65.3426L45.7709 71.5706ZM45.7709 71.5706L45.6534 64.8725C45.6534 62.6399 45.5359 60.5247 45.5359 58.4095L45.8884 58.762C40.718 58.8795 35.5476 58.997 30.3771 58.997L14.8658 59.1146L15.4533 58.527L15.3358 71.6881L14.8658 71.2181C17.451 71.2181 20.0362 71.2181 22.5039 71.3356L30.2596 71.4531L45.7709 71.5706Z" fill="#EBEBEB"/>
<path d="M58.7983 305.858H89.9385V292.697H58.7983V305.858Z" fill="#EBEBEB"/>
<path d="M76.2062 276.038L91.6 275.686L99.4732 275.568C102.058 275.568 104.761 275.568 107.346 275.451H107.816V275.921L107.934 289.2V289.787H107.346L91.8351 289.67C86.6646 289.67 81.4942 289.552 76.3237 289.435H75.9712V289.082C75.9712 286.849 76.0887 284.617 76.0887 282.384L76.2062 276.038ZM76.2062 276.038L76.3237 282.737C76.3237 284.969 76.4412 287.084 76.4412 289.2L76.0887 288.847C81.2591 288.73 86.4296 288.612 91.6 288.612L107.111 288.495L106.759 289.2L106.876 276.038L107.346 276.509C104.761 276.509 102.176 276.509 99.7082 276.391L91.9526 276.273L76.2062 276.038Z" fill="#EBEBEB"/>
<path d="M507.116 518.155H306.761L302.648 435.897H511.346L507.116 518.155Z" fill="#999999"/>
<path d="M314.516 445.063H401.709L400.181 473.618H316.396L314.516 445.063ZM400.534 446.003H315.456L317.102 472.56H399.006L400.534 446.003Z" fill="#DBDBDB"/>
<path d="M316.278 480.668H398.065L396.773 506.403H317.806L316.278 480.668ZM397.008 481.608H317.336L318.864 505.345H395.833L397.008 481.608Z" fill="#DBDBDB"/>
<path d="M349.181 455.522H365.045L364.105 462.455H350.004L349.181 455.522ZM363.988 456.462H350.474L351.061 461.28H363.4L363.988 456.462Z" fill="#DBDBDB"/>
<path d="M349.181 490.069H365.045L364.105 497.002H350.004L349.181 490.069ZM363.988 491.127H350.474L351.061 495.945H363.4L363.988 491.127Z" fill="#DBDBDB"/>
<path d="M412.991 445.063H500.183L498.656 473.618H414.871L412.991 445.063ZM499.126 446.003H414.048L415.694 472.56H497.598L499.126 446.003Z" fill="#DBDBDB"/>
<path d="M414.754 480.668H496.541L495.248 506.403H416.281L414.754 480.668ZM495.601 481.608H415.811L417.339 505.345H494.308L495.601 481.608Z" fill="#DBDBDB"/>
<path d="M447.773 455.521H463.637L462.697 462.454H448.596L447.773 455.521ZM462.462 456.461H448.948L449.536 461.279H461.875L462.462 456.461Z" fill="#DBDBDB"/>
<path d="M447.773 490.069H463.637L462.697 497.002H448.596L447.773 490.069ZM462.462 491.127H448.948L449.536 495.945H461.875L462.462 491.127Z" fill="#DBDBDB"/>
<path d="M489.254 518.154L490.429 527.085L493.014 545.064H497.949V518.154H489.254Z" fill="#999999"/>
<path d="M489.254 518.154L490.429 527.085H497.949V518.154H489.254Z" fill="#868484"/>
<path d="M324.741 518.154L323.566 527.085L320.981 545.064H316.045V518.154H324.741Z" fill="#999999"/>
<path d="M324.741 518.154L323.566 527.085H316.045V518.154H324.741Z" fill="#868484"/>
<path d="M452.325 435.946V375.311H437.048V435.946H452.325Z" fill="#C7C7C7"/>
<path d="M452.306 378.701V372.003H437.029V378.701H452.306Z" fill="#DBDBDB"/>
<path d="M452.363 389.687V387.22H437.086V389.687H452.363Z" fill="#DBDBDB"/>
<path d="M452.313 427.946V421.248H437.037V427.946H452.313Z" fill="#DBDBDB"/>
<path d="M437.014 435.876V365.135H426.321V435.876H437.014Z" fill="#DBDBDB"/>
<path d="M434.996 398.981V371.836H428.65V398.981H434.996Z" fill="#EBEBEB"/>
<path d="M357.891 435.845L408.202 386.114L400.685 378.509L350.374 428.24L357.891 435.845Z" fill="#C7C7C7"/>
<path d="M368.187 422.593L387.492 403.51L383.032 398.997L363.726 418.08L368.187 422.593Z" fill="#DBDBDB"/>
<path d="M426.44 435.858V382.156H408.344V435.858H426.44Z" fill="#A6A6A6"/>
<path d="M426.414 430.308V425.255H408.318V430.308H426.414Z" fill="#C7C7C7"/>
<path d="M426.354 422.022V420.025H408.257V422.022H426.354Z" fill="#C7C7C7"/>
<path d="M483.638 431.099L463.704 384.667L452.258 389.581L472.192 436.013L483.638 431.099Z" fill="#A6A6A6"/>
<path d="M481.497 426.058L479.643 421.739L468.197 426.653L470.051 430.972L481.497 426.058Z" fill="#C7C7C7"/>
<path d="M469.721 398.547L467.867 394.228L456.421 399.141L458.275 403.461L469.721 398.547Z" fill="#C7C7C7"/>
<path d="M471.712 403.25L470.97 401.522L459.524 406.436L460.266 408.164L471.712 403.25Z" fill="#C7C7C7"/>
<path d="M468.22 95.5427V6" stroke="#FE9563" stroke-width="1.1751" stroke-miterlimit="10"/>
<path d="M425.212 137.141L428.62 144.779H507.94L511.347 137.141L477.622 113.757H458.938L425.212 137.141Z" fill="#FE9563"/>
<path d="M456.588 91.3123L458.938 113.757H477.622L479.972 91.3123H456.588Z" fill="#FE9563"/>
<path d="M425.212 137.141L428.62 144.779H507.94L511.347 137.141H425.212Z" fill="#FFC7AC"/>
<path d="M375.741 70.9831V6" stroke="#FE9563" stroke-width="1.1751" stroke-miterlimit="10"/>
<path d="M332.615 112.582L336.14 120.22H415.342L418.867 112.582L385.024 89.197H366.34L332.615 112.582Z" fill="#FE9563"/>
<path d="M363.99 66.635L366.34 89.1969H385.024L387.374 66.635H363.99Z" fill="#FE9563"/>
<path d="M332.615 112.582L336.14 120.22H415.342L418.867 112.582H332.615Z" fill="#FFC7AC"/>
<path d="M34.9588 120.339L106.992 107.765L96.534 58.2932L24.5004 70.8668L34.9588 120.339Z" fill="#FE9563"/>
<path d="M69.977 57.5884L95.4767 53.123L96.5343 58.2935L69.6245 62.9939L69.977 57.5884Z" fill="#FE9563"/>
<path d="M35.077 120.222L106.993 107.766L102.293 61.5845L30.2591 74.0405L35.077 120.222Z" fill="#FFC7AC"/>
<path d="M76.3233 61.2317L101.705 56.7664L102.293 61.5843L75.3832 66.1672L76.3233 61.2317Z" fill="#FFC7AC"/>
<path d="M65.8624 169.691L155.053 175.214L156.698 113.404L67.5076 107.881L65.8624 169.691Z" fill="#FE9563"/>
<path d="M125.323 105.061L156.816 107.058L156.698 113.404L123.325 111.406L125.323 105.061Z" fill="#FE9563"/>
<path d="M65.9816 169.692L155.172 175.215L162.575 118.928L73.3847 113.405L65.9816 169.692Z" fill="#FFC7AC"/>
<path d="M131.788 111.172L163.398 113.053L162.575 118.928L129.202 116.93L131.788 111.172Z" fill="#FFC7AC"/>
<path d="M424.508 279.798V255.356L449.538 267.577L424.508 279.798Z" fill="#FE9563"/>
<path d="M496.659 273.57V261.584L508.88 267.577L496.659 273.57Z" fill="#FE9563"/>
<path d="M486.907 273.57V261.584L499.128 267.577L486.907 273.57Z" fill="#FE9563"/>
<path d="M377.387 261.584V273.57L365.166 267.577L377.387 261.584Z" fill="#EBEBEB"/>
<path d="M387.14 261.584V273.57L374.919 267.577L387.14 261.584Z" fill="#FE9563"/>
<path d="M365.283 257.471H362.815V277.8H365.283V257.471Z" fill="#EBEBEB"/>
<path d="M511.348 257.471H508.88V277.8H511.348V257.471Z" fill="#FE9563"/>
<path d="M460.349 464.806C460.819 452.937 460.584 441.069 459.879 429.318C458.234 404.993 454.238 380.786 448.715 356.932C445.66 343.536 441.782 330.374 437.787 317.213C437.669 316.861 437.082 316.978 437.199 317.331C449.538 363.63 459.644 411.456 458.939 459.636C458.704 473.149 457.176 486.31 455.883 499.706C455.883 500.059 456.471 500.177 456.471 499.824C458.939 488.543 459.879 476.557 460.349 464.806Z" fill="#FE9563"/>
<path d="M437.199 317.448C437.199 317.448 418.515 364.805 422.745 375.851C426.976 387.014 435.554 389.365 435.554 389.365C435.554 389.365 424.156 405.699 432.146 420.975C440.137 436.251 457.881 435.546 459.056 452.82C458.821 452.82 459.879 380.434 437.199 317.448Z" fill="#FE9563"/>
<path d="M456.823 422.973C456.823 422.855 456.823 422.855 456.823 422.738C454.238 390.54 448.48 358.46 438.726 327.555C438.726 327.437 438.491 327.437 438.609 327.555C442.252 341.421 445.542 355.287 448.362 369.271C445.895 366.803 442.722 365.393 439.432 364.335C439.314 364.335 439.314 364.453 439.432 364.453C442.839 365.98 446.13 367.626 448.597 370.563C449.185 373.266 449.655 376.086 450.125 378.789C446.012 374.089 440.137 371.856 434.379 369.623C434.261 369.623 434.261 369.741 434.379 369.741C440.372 372.209 446.365 375.381 450.477 380.552C451.888 388.425 453.18 396.298 454.238 404.171C451.183 400.998 447.422 398.883 443.074 397.826C442.957 397.826 442.839 397.943 442.957 398.061C447.422 399.353 451.183 401.821 454.238 405.229C454.238 405.229 454.238 405.229 454.355 405.229C454.708 408.049 455.06 410.752 455.413 413.572C453.063 411.574 450.477 410.047 447.657 408.872C447.54 408.872 447.54 408.989 447.657 408.989C450.595 410.282 453.18 412.044 455.413 414.16H455.53C455.883 416.862 456.118 419.448 456.47 422.15C452.24 416.98 446.952 413.22 440.607 410.869C440.489 410.869 440.372 410.987 440.489 411.104C446.6 413.69 451.888 417.92 456.118 423.09C456.235 423.208 456.353 423.208 456.47 423.208C456.823 427.321 457.176 431.316 457.528 435.429C457.528 435.429 457.646 435.546 457.646 435.429C457.528 431.316 457.176 427.086 456.823 422.973Z" fill="#263238"/>
<path d="M441.9 359.635C438.61 357.402 434.615 356.462 430.737 356.109C430.619 356.109 430.619 356.227 430.737 356.227C434.732 356.814 438.14 358.225 441.783 359.87C441.9 359.987 442.018 359.752 441.9 359.635Z" fill="#263238"/>
<path d="M444.131 409.694C441.546 408.166 438.608 407.344 435.671 406.874C435.553 406.874 435.553 406.991 435.671 406.991C438.608 407.579 441.311 408.636 444.014 409.929C444.131 409.929 444.249 409.811 444.131 409.694Z" fill="#263238"/>
<path d="M509.35 376.673C501.595 382.196 494.074 388.424 487.728 395.593C480.913 403.113 476.095 411.691 472.57 421.21C465.519 440.716 461.641 461.868 461.289 482.55C461.054 494.184 462.111 505.7 464.579 517.098C464.696 517.568 465.284 517.451 465.166 516.98C462.111 497.004 462.229 476.557 465.519 456.698C468.692 437.074 473.745 415.804 486.201 399.94C493.016 391.245 501.477 384.429 509.82 377.379C510.29 376.908 509.703 376.321 509.35 376.673Z" fill="#FE9563"/>
<path d="M464.109 468.449C464.109 468.449 470.454 457.638 479.855 448.354C489.138 439.071 497.012 432.373 498.304 426.262C499.479 420.152 488.903 415.569 488.903 415.569C488.903 415.569 501.829 417.919 505.355 412.514C508.88 407.108 510.643 375.733 510.643 375.733C510.643 375.733 487.141 392.537 476.212 416.039C465.166 439.424 464.109 468.449 464.109 468.449Z" fill="#FE9563"/>
<path d="M502.417 383.724C492.546 393.477 482.558 403.818 476.8 416.509C474.802 420.857 473.157 425.44 471.629 430.023C471.277 430.963 471.042 431.903 470.689 432.843V432.96C467.869 442.479 465.754 452.349 463.991 461.985C463.991 462.103 464.108 462.103 464.108 461.985C465.166 457.05 466.224 452.114 467.516 447.179H467.634C469.631 446.356 471.629 445.769 473.744 445.651C473.862 445.651 473.862 445.416 473.744 445.416C471.629 445.534 469.631 445.886 467.634 446.474C468.809 442.009 469.984 437.543 471.394 433.195C475.977 432.138 480.677 431.433 485.378 431.433V431.315C480.677 431.08 476.212 431.55 471.629 432.49C471.864 431.785 472.099 430.963 472.334 430.258C475.389 429.552 478.445 428.965 481.617 428.73V428.612C478.562 428.73 475.507 428.965 472.569 429.67C473.862 425.91 475.272 422.149 476.8 418.507C478.092 415.451 479.62 412.631 481.265 409.928C483.733 409.341 486.2 408.871 488.786 408.636C488.903 408.636 488.903 408.518 488.786 408.518C486.435 408.401 483.968 408.518 481.735 409.223C483.028 407.226 484.32 405.228 485.613 403.348C490.901 402.173 496.189 401.115 501.594 402.055C501.712 402.055 501.712 401.938 501.594 401.938C496.424 400.645 491.371 401.35 486.318 402.408C486.905 401.703 487.493 400.88 487.963 400.175C491.253 399.117 494.426 398.647 497.834 398.647C497.951 398.647 497.951 398.53 497.834 398.53C494.779 398.177 491.606 398.53 488.668 399.352C493.016 393.947 497.834 388.894 502.534 383.841C502.769 383.606 502.652 383.489 502.417 383.724Z" fill="#263238"/>
<path d="M502.182 405.111C500.654 404.993 499.009 404.758 497.482 404.993C497.247 404.993 497.364 405.346 497.482 405.346C499.009 405.346 500.537 405.228 502.064 405.346C502.182 405.228 502.299 405.111 502.182 405.111Z" fill="#263238"/>
<path d="M485.261 435.546C482.793 435.546 480.325 436.133 477.975 436.956V437.073C480.325 436.486 482.793 436.251 485.143 435.898C485.496 435.898 485.496 435.546 485.261 435.546Z" fill="#263238"/>
<path d="M480.208 424.97C479.15 424.97 478.093 425.087 477.153 425.205C477.035 425.205 477.035 425.44 477.153 425.44C478.093 425.44 479.268 425.44 480.208 425.322C480.325 425.322 480.325 424.97 480.208 424.97Z" fill="#263238"/>
<path d="M395.248 409.929C402.768 412.514 410.289 415.922 417.105 420.152C424.273 424.735 430.266 430.493 435.319 437.426C445.542 451.528 453.533 467.744 458.586 484.548C461.406 493.949 463.286 503.467 463.874 513.22C463.874 513.573 463.404 513.573 463.286 513.22C461.171 496.299 456.353 479.848 449.067 464.454C441.899 449.295 432.968 433.314 419.22 423.325C411.699 417.92 403.356 414.277 394.895 410.517C394.543 410.399 394.778 409.812 395.248 409.929Z" fill="#FE9563"/>
<path d="M453.063 473.854C453.063 473.854 445.425 466.568 435.671 461.163C425.918 455.757 418.045 452.232 415.694 447.532C413.344 442.831 420.747 436.721 420.747 436.721C420.747 436.721 410.877 441.539 406.764 438.013C402.651 434.488 394.073 409.458 394.073 409.458C394.073 409.458 416.987 417.567 431.206 434.136C445.425 450.587 453.063 473.854 453.063 473.854Z" fill="#FE9563"/>
<path d="M451.888 468.684C440.49 447.18 425.213 427.791 404.296 414.982C409.819 418.507 414.872 422.503 419.573 426.968C415.342 426.851 410.995 427.556 407.234 429.553C407.117 429.553 407.234 429.671 407.352 429.671C411.582 428.261 415.577 427.321 420.043 427.556C420.16 427.556 420.16 427.556 420.16 427.556C420.865 428.261 421.688 428.966 422.393 429.671C420.16 429.788 417.928 430.023 415.812 430.493V430.611C418.163 430.141 420.395 430.023 422.746 430.023C426.623 433.901 430.149 438.014 433.556 442.244C432.029 442.009 430.384 442.127 428.974 442.597C428.856 442.597 428.856 442.832 428.974 442.715C430.619 442.48 432.264 442.48 433.909 442.597C434.497 443.42 435.202 444.242 435.789 444.947C431.089 444.712 426.506 445.065 421.923 446.24C421.805 446.24 421.923 446.357 421.923 446.357C426.623 445.417 431.441 445.182 436.142 445.417C436.729 446.24 437.317 446.945 437.904 447.767C435.084 447.65 432.381 448.002 429.679 448.708C429.561 448.708 429.561 448.943 429.679 448.825C432.499 448.238 435.319 448.002 438.257 448.12C440.725 451.528 443.075 454.936 445.307 458.461C444.132 458.226 442.84 458.343 441.665 458.696C441.547 458.696 441.665 458.813 441.665 458.813C442.957 458.696 444.25 458.813 445.542 459.048C447.54 462.221 449.538 465.394 451.418 468.684C451.535 469.154 452.006 468.919 451.888 468.684Z" fill="#263238"/>
<path d="M434.027 450.822C431.794 450.587 429.561 450.94 427.328 451.645C427.211 451.645 427.328 451.762 427.328 451.762C429.561 451.41 431.676 451.175 433.909 451.057C434.262 451.057 434.262 450.822 434.027 450.822Z" fill="#263238"/>
<path d="M414.167 424.618C413.109 424.5 412.052 424.618 411.111 424.853C410.994 424.853 410.994 425.088 411.111 425.088C412.169 424.97 413.109 424.97 414.167 424.97C414.284 424.97 414.284 424.735 414.167 424.618Z" fill="#263238"/>
<path d="M482.558 544.83H430.971L438.257 490.893L440.137 477.027H473.275L475.273 490.893L482.558 544.83Z" fill="#455A64"/>
<path d="M475.272 490.893H438.257L440.137 477.027H473.275L475.272 490.893Z" fill="#263238"/>
<path d="M478.093 472.209H435.437V483.96H478.093V472.209Z" fill="#455A64"/>
<path d="M353.412 79.4434H160.225C149.414 79.4434 140.718 88.3741 140.718 99.3026V497.192C140.718 508.12 149.532 517.051 160.225 517.051H353.412C364.223 517.051 373.036 508.12 373.036 497.192V99.3026C373.036 88.3741 364.223 79.4434 353.412 79.4434ZM360.815 484.853C360.815 495.311 352.942 503.772 343.306 503.772H170.448C160.813 503.772 152.939 495.311 152.939 484.853V114.461C152.939 93.0745 160.813 92.1344 170.448 92.1344H205.114C207.112 92.1344 208.757 94.3671 208.757 97.3049V98.48C208.757 105.178 212.4 105.178 216.865 105.178H297.007C301.472 105.178 305.115 105.178 305.115 98.48V97.3049C305.115 94.4846 306.76 92.1344 308.758 92.1344H343.423C353.059 92.1344 360.932 94.9547 360.932 114.461V484.853H360.815Z" fill="#37474F"/>
<path d="M267.747 96.8347H245.89C245.185 96.8347 244.597 96.2472 244.597 95.5421C244.597 94.8371 245.185 94.2495 245.89 94.2495H267.747C268.452 94.2495 269.04 94.8371 269.04 95.5421C269.04 96.1297 268.452 96.8347 267.747 96.8347Z" fill="#263238"/>
<path d="M360.813 114.462V484.853C360.813 495.312 352.94 503.772 343.304 503.772H170.447C160.811 503.772 152.938 495.312 152.938 484.853V114.462C152.938 93.0747 160.811 92.1346 170.447 92.1346H205.112C207.11 92.1346 208.755 94.3673 208.755 97.3051V98.4802C208.755 105.178 212.398 105.178 216.863 105.178H297.005C301.47 105.178 305.113 105.178 305.113 98.4802V97.3051C305.113 94.4848 306.758 92.1346 308.756 92.1346H343.421C352.94 92.0171 360.813 94.9549 360.813 114.462Z" fill="white"/>
<path d="M360.813 114.462V160.761H152.821V114.462C152.821 93.075 160.694 92.1349 170.33 92.1349H204.995C206.993 92.1349 208.638 94.3676 208.638 97.3053V98.4804C208.638 105.179 212.281 105.179 216.746 105.179H296.888C301.353 105.179 304.996 105.179 304.996 98.4804V97.3053C304.996 94.4851 306.641 92.1349 308.639 92.1349H343.304C352.94 92.0174 360.813 94.9551 360.813 114.462Z" fill="#FE9563"/>
<path d="M173.856 140.314L167.745 134.556L173.856 128.798L174.913 129.855L169.743 134.556L174.913 139.374L173.856 140.314Z" fill="white"/>
<path d="M344.715 131.03C344.715 131.735 344.128 132.205 343.54 132.205C342.952 132.205 342.365 131.618 342.365 131.03C342.365 130.443 342.952 129.855 343.54 129.855C344.128 129.855 344.715 130.325 344.715 131.03Z" fill="white"/>
<path d="M344.715 135.261C344.715 135.966 344.127 136.436 343.54 136.436C342.952 136.436 342.365 135.848 342.365 135.261C342.365 134.555 342.952 134.085 343.54 134.085C344.127 134.085 344.715 134.673 344.715 135.261Z" fill="white"/>
<path d="M344.715 139.608C344.715 140.313 344.127 140.783 343.54 140.783C342.952 140.783 342.365 140.196 342.365 139.608C342.365 138.903 342.952 138.433 343.54 138.433C344.127 138.433 344.715 138.903 344.715 139.608Z" fill="white"/>
<path d="M199.003 100.36C198.885 100.478 198.768 100.595 198.65 100.713C198.533 100.83 198.533 100.83 198.415 100.948C197.475 100.125 196.418 99.6553 195.242 99.6553C193.95 99.6553 192.892 100.125 192.07 100.948C191.952 100.83 191.952 100.83 191.835 100.713C191.717 100.595 191.6 100.478 191.482 100.36C191.6 100.243 191.717 100.125 191.952 100.008C192.305 99.7728 192.54 99.5378 192.892 99.4203C193.362 99.1853 193.715 99.0678 194.185 98.9503C194.42 98.9503 194.655 98.8328 194.89 98.8328C195.007 98.8328 195.477 98.8328 195.477 98.8328C195.595 98.8328 195.83 98.8328 195.947 98.8328C196.3 98.8328 196.77 98.9503 197.123 99.0678C197.358 99.1853 197.71 99.3028 197.945 99.4203C198.18 99.5378 198.533 99.7728 198.768 100.008C198.768 100.125 198.885 100.243 199.003 100.36Z" fill="white"/>
<path d="M193.127 102.006C192.892 101.888 192.775 101.653 192.54 101.536C193.127 100.948 193.832 100.596 194.655 100.478C195.947 100.361 197.005 100.713 197.945 101.536C197.71 101.771 197.593 101.888 197.358 102.006C196.77 101.418 196.065 101.066 195.242 101.066C194.42 101.066 193.715 101.418 193.127 102.006Z" fill="white"/>
<path d="M196.887 102.476C196.769 102.593 196.534 102.828 196.417 102.946C196.064 102.593 195.712 102.476 195.359 102.476C194.889 102.476 194.537 102.593 194.302 102.946C194.184 102.828 193.949 102.593 193.832 102.476C194.537 101.653 195.947 101.536 196.887 102.476Z" fill="white"/>
<path d="M195.711 103.534C195.711 103.769 195.476 104.004 195.241 104.004C195.006 104.004 194.771 103.769 194.771 103.534C194.771 103.298 195.006 103.063 195.241 103.063C195.594 103.063 195.711 103.181 195.711 103.534Z" fill="white"/>
<path d="M166.454 101.418C166.454 100.713 167.041 100.008 167.864 100.008C168.569 100.008 169.274 100.596 169.274 101.418C169.274 102.241 168.686 102.828 167.864 102.828C167.041 102.828 166.454 102.123 166.454 101.418Z" fill="white"/>
<path d="M170.802 101.418C170.802 100.713 171.389 100.008 172.212 100.008C172.917 100.008 173.622 100.596 173.622 101.418C173.622 102.241 173.034 102.828 172.212 102.828C171.389 102.828 170.802 102.123 170.802 101.418Z" fill="white"/>
<path d="M175.15 101.418C175.15 100.713 175.737 100.008 176.56 100.008C177.265 100.008 177.97 100.596 177.97 101.418C177.97 102.241 177.383 102.828 176.56 102.828C175.737 102.828 175.15 102.123 175.15 101.418Z" fill="white"/>
<path d="M179.38 101.418C179.38 100.713 179.968 100.008 180.79 100.008C181.495 100.008 182.2 100.596 182.2 101.418C182.2 102.241 181.613 102.828 180.79 102.828C180.085 102.828 179.38 102.123 179.38 101.418Z" fill="white"/>
<path d="M183.728 101.418C183.728 100.713 184.316 100.008 185.138 100.008C185.844 100.008 186.549 100.596 186.549 101.418C186.549 102.241 185.961 102.828 185.138 102.828C184.433 102.828 183.728 102.123 183.728 101.418Z" fill="white"/>
<path d="M345.185 104.355H333.904V99.1848H345.185V104.355ZM334.492 103.768H344.598V99.7724H334.492V103.768Z" fill="white"/>
<path d="M342.13 100.125H334.844V103.532H342.13V100.125Z" fill="white"/>
<path d="M346.125 100.359H345.185V103.18H346.125V100.359Z" fill="white"/>
<path d="M184.432 481.21H182.905V488.378H179.967V484.736H174.679V488.378H171.741V481.21H170.096L177.264 473.807L184.432 481.21Z" fill="#EBEBEB"/>
<path d="M343.541 473.807H326.267V476.275H343.541V473.807Z" fill="#EBEBEB"/>
<path d="M343.541 479.917H326.267V482.385H343.541V479.917Z" fill="#EBEBEB"/>
<path d="M343.541 485.91H326.267V488.378H343.541V485.91Z" fill="#EBEBEB"/>
<path d="M261.753 480.153L256.818 485.324L251.882 480.153L252.822 479.331L256.818 483.678L260.813 479.331L261.753 480.153Z" fill="#EBEBEB"/>
<path d="M256.818 490.729C251.883 490.729 247.888 486.733 247.888 481.798C247.888 476.863 251.883 472.867 256.818 472.867C261.754 472.867 265.749 476.863 265.749 481.798C265.749 486.733 261.754 490.729 256.818 490.729ZM256.818 474.16C252.588 474.16 249.063 477.568 249.063 481.915C249.063 486.146 252.47 489.671 256.818 489.671C261.049 489.671 264.574 486.263 264.574 481.915C264.574 477.568 261.049 474.16 256.818 474.16Z" fill="#EBEBEB"/>
<path d="M339.193 360.998V363.348H336.843" stroke="#FE9563" stroke-width="1.1751" stroke-miterlimit="10"/>
<path d="M332.26 363.348H179.027" stroke="#FE9563" stroke-width="1.1751" stroke-miterlimit="10" stroke-dasharray="4.58 4.58"/>
<path d="M176.794 363.348H174.444V360.998" stroke="#FE9563" stroke-width="1.1751" stroke-miterlimit="10"/>
<path d="M174.444 356.415V237.142" stroke="#FE9563" stroke-width="1.1751" stroke-miterlimit="10" stroke-dasharray="4.68 4.68"/>
<path d="M174.444 234.792V232.442H176.794" stroke="#FFC727" stroke-width="1.1751" stroke-miterlimit="10"/>
<path d="M181.377 232.442H334.61" stroke="#FE9563" stroke-width="1.1751" stroke-miterlimit="10" stroke-dasharray="4.58 4.58"/>
<path d="M336.843 232.442H339.193V234.792" stroke="#FFC727" stroke-width="1.1751" stroke-miterlimit="10"/>
<path d="M339.193 239.493V358.765" stroke="#FE9563" stroke-width="1.1751" stroke-miterlimit="10" stroke-dasharray="4.68 4.68"/>
<path d="M195.479 314.699C195.479 323.042 201.942 329.858 210.167 330.446H299.71C309.934 330.446 318.277 322.102 318.277 311.879C318.277 302.243 310.874 294.252 301.473 293.43C300.885 276.626 287.137 263.112 270.215 263.112C256.701 263.112 245.185 271.691 240.838 283.559C238.37 282.266 235.55 281.561 232.494 281.561C222.624 281.561 214.515 289.317 213.928 298.953C213.105 298.835 212.283 298.718 211.343 298.718C202.529 298.835 195.479 306.003 195.479 314.699Z" fill="#FE9563"/>
<path d="M264.928 309.881H248.711V330.446H264.928V309.881Z" fill="white"/>
<path d="M243.188 309.881H270.45L256.819 296.25L243.188 309.881Z" fill="white"/>
<path d="M218.744 138.904C216.981 138.904 215.454 137.494 215.454 135.614V131.619C215.454 131.266 215.689 131.031 216.041 131.031C216.394 131.031 216.629 131.266 216.629 131.619V135.614C216.629 136.672 217.569 137.612 218.626 137.612C219.802 137.612 220.624 136.672 220.624 135.614V131.619C220.624 131.266 220.859 131.031 221.212 131.031C221.564 131.031 221.799 131.266 221.799 131.619V135.614C222.034 137.377 220.624 138.904 218.744 138.904Z" fill="white"/>
<path d="M227.323 135.849H225.913V138.317C225.913 138.669 225.678 138.904 225.325 138.904C224.973 138.904 224.738 138.669 224.738 138.317V131.619C224.738 131.266 224.973 131.031 225.325 131.031H227.323C228.615 131.031 229.79 132.089 229.79 133.499C229.79 134.674 228.615 135.849 227.323 135.849ZM225.913 134.557H227.323C228.028 134.557 228.498 134.087 228.498 133.381C228.498 132.676 228.028 132.206 227.323 132.206H225.913V134.557Z" fill="white"/>
<path d="M231.317 138.199V131.501C231.317 131.148 231.552 130.913 231.905 130.913C232.258 130.913 232.493 131.148 232.493 131.501V137.494H235.548C235.9 137.494 236.135 137.729 236.135 138.081C236.135 138.434 235.9 138.669 235.548 138.669H231.905C231.552 138.904 231.317 138.551 231.317 138.199Z" fill="white"/>
<path d="M243.42 131.971C244.125 132.676 244.595 133.733 244.595 134.791C244.595 135.966 244.125 136.906 243.42 137.611C242.715 138.316 241.775 138.786 240.717 138.786C239.66 138.786 238.602 138.316 237.897 137.611C237.192 136.906 236.722 135.849 236.722 134.791C236.722 133.616 237.192 132.676 237.897 131.971C238.602 131.266 239.542 130.796 240.717 130.796C241.775 130.796 242.715 131.266 243.42 131.971ZM243.303 134.791C243.303 133.968 242.95 133.263 242.48 132.793C242.01 132.323 241.422 131.971 240.717 131.971C240.012 131.971 239.307 132.206 238.837 132.793C238.367 133.263 238.015 133.968 238.015 134.791C238.015 135.614 238.25 136.319 238.837 136.789C239.307 137.259 239.895 137.611 240.717 137.611C241.422 137.611 242.01 137.259 242.48 136.789C242.95 136.319 243.303 135.614 243.303 134.791Z" fill="white"/>
<path d="M250.354 137.024H247.651L247.064 138.434C246.946 138.669 246.711 138.787 246.476 138.787C246.359 138.787 246.359 138.787 246.241 138.787C245.888 138.669 245.771 138.316 245.888 137.964L248.356 131.266C248.474 131.031 248.709 130.913 248.944 130.913C249.179 130.913 249.414 131.031 249.531 131.266L251.999 137.964C252.117 138.316 251.999 138.669 251.646 138.787C251.646 138.787 251.529 138.787 251.411 138.787C251.176 138.787 250.941 138.669 250.824 138.434L250.354 137.024ZM249.884 135.731L248.944 133.264L248.004 135.731H249.884Z" fill="white"/>
<path d="M253.645 138.199V131.501C253.645 131.148 253.88 130.913 254.232 130.913H255.525C257.757 130.913 259.52 132.676 259.52 134.909C259.52 137.141 257.757 138.904 255.525 138.904H254.232C253.88 138.904 253.645 138.551 253.645 138.199ZM254.937 137.611H255.642C257.17 137.611 258.345 136.436 258.345 134.909C258.345 133.381 257.17 132.206 255.642 132.206H254.937V137.611Z" fill="white"/>
<path d="M267.746 138.787C267.629 138.787 267.746 138.787 267.746 138.787C267.629 138.669 267.629 138.669 267.746 138.787C267.629 138.669 267.629 138.669 267.629 138.669V138.552L264.808 131.971C264.691 131.619 264.808 131.266 265.161 131.149C265.513 131.031 265.866 131.149 265.984 131.501L268.216 136.789L270.449 131.501C270.566 131.149 270.919 131.031 271.271 131.149C271.624 131.266 271.742 131.619 271.624 131.971L268.804 138.552V138.669C268.804 138.669 268.804 138.669 268.804 138.787C268.804 138.787 268.804 138.787 268.686 138.787C268.686 138.787 268.686 138.787 268.569 138.787C268.569 138.787 268.569 138.787 268.451 138.787H268.334H268.216H268.099C268.099 138.787 267.864 138.787 267.746 138.787C267.864 138.787 267.746 138.787 267.746 138.787Z" fill="white"/>
<path d="M273.151 131.619C273.151 131.266 273.386 131.031 273.739 131.031C274.091 131.031 274.326 131.266 274.326 131.619V138.317C274.326 138.669 274.091 138.904 273.739 138.904C273.386 138.904 273.151 138.669 273.151 138.317V131.619Z" fill="white"/>
<path d="M276.559 138.199V131.501C276.559 131.148 276.794 130.913 277.147 130.913H278.439C280.672 130.913 282.435 132.676 282.435 134.909C282.435 137.141 280.672 138.904 278.439 138.904H277.147C276.794 138.904 276.559 138.551 276.559 138.199ZM277.734 137.611H278.439C279.967 137.611 281.142 136.436 281.142 134.909C281.142 133.381 279.967 132.206 278.439 132.206H277.734V137.611Z" fill="white"/>
<path d="M284.08 138.199V131.501C284.08 131.148 284.315 130.913 284.668 130.913H288.311C288.663 130.913 288.898 131.148 288.898 131.501C288.898 131.853 288.663 132.088 288.311 132.088H285.373V134.204H287.958C288.311 134.204 288.546 134.439 288.546 134.791C288.546 135.144 288.311 135.379 287.958 135.379H285.373V137.494H288.428C288.781 137.494 289.016 137.729 289.016 138.081C289.016 138.434 288.781 138.669 288.428 138.669H284.785C284.315 138.904 284.08 138.551 284.08 138.199Z" fill="white"/>
<path d="M297.006 131.971C297.711 132.676 298.181 133.733 298.181 134.791C298.181 135.966 297.711 136.906 297.006 137.611C296.301 138.316 295.361 138.786 294.303 138.786C293.246 138.786 292.188 138.316 291.483 137.611C290.778 136.906 290.308 135.849 290.308 134.791C290.308 133.616 290.778 132.676 291.483 131.971C292.188 131.266 293.128 130.796 294.303 130.796C295.361 130.796 296.301 131.266 297.006 131.971ZM296.889 134.791C296.889 133.968 296.536 133.263 296.066 132.793C295.596 132.323 295.008 131.971 294.303 131.971C293.598 131.971 292.893 132.206 292.423 132.793C291.953 133.263 291.601 133.968 291.601 134.791C291.601 135.614 291.836 136.319 292.423 136.789C292.893 137.259 293.481 137.611 294.303 137.611C295.008 137.611 295.596 137.259 296.066 136.789C296.536 136.319 296.889 135.614 296.889 134.791Z" fill="white"/>
<path d="M239.897 385.909C238.37 385.909 237.195 384.734 237.195 383.206V379.916C237.195 379.681 237.43 379.446 237.665 379.446C237.9 379.446 238.135 379.681 238.135 379.916V383.206C238.135 384.146 238.84 384.852 239.78 384.852C240.72 384.852 241.425 384.146 241.425 383.206V379.916C241.425 379.681 241.66 379.446 241.895 379.446C242.13 379.446 242.365 379.681 242.365 379.916V383.206C242.6 384.734 241.308 385.909 239.897 385.909Z" fill="#C7C7C7"/>
<path d="M244.716 387.202V383.677V381.796C244.716 381.561 244.951 381.326 245.186 381.326C245.421 381.326 245.656 381.561 245.656 381.679C246.008 381.444 246.478 381.326 246.948 381.326C248.241 381.326 249.181 382.384 249.181 383.677C249.181 384.969 248.123 386.027 246.948 386.027C246.478 386.027 246.008 385.909 245.656 385.674V387.319C245.656 387.554 245.421 387.789 245.068 387.789C244.951 387.672 244.716 387.437 244.716 387.202ZM245.656 383.559C245.656 383.912 245.773 384.264 246.008 384.499C246.243 384.734 246.596 384.852 246.948 384.852C247.301 384.852 247.536 384.734 247.771 384.499C248.006 384.264 248.123 383.912 248.123 383.559C248.123 383.207 248.006 382.854 247.771 382.619C247.536 382.384 247.183 382.267 246.948 382.267C246.596 382.267 246.243 382.384 246.008 382.619C245.773 382.854 245.656 383.207 245.656 383.559Z" fill="#C7C7C7"/>
<path d="M251.296 379.329C251.531 379.329 251.766 379.564 251.766 379.799V385.322C251.766 385.557 251.531 385.792 251.296 385.792C251.061 385.792 250.826 385.557 250.826 385.322V379.799C250.708 379.564 250.943 379.329 251.296 379.329Z" fill="#C7C7C7"/>
<path d="M253.411 385.205C253.059 384.735 252.706 384.264 252.706 383.559C252.706 382.972 252.941 382.384 253.411 381.914C253.881 381.444 254.352 381.209 255.057 381.209C255.644 381.209 256.232 381.444 256.584 381.914C257.054 382.384 257.289 382.972 257.289 383.559C257.289 384.264 257.054 384.852 256.584 385.205C256.232 385.675 255.644 385.91 255.057 385.91C254.469 385.91 253.881 385.675 253.411 385.205ZM253.881 383.559C253.881 383.912 253.999 384.265 254.234 384.5C254.469 384.735 254.822 384.852 255.174 384.852C255.527 384.852 255.762 384.735 255.997 384.5C256.232 384.265 256.349 383.912 256.349 383.559C256.349 383.207 256.232 382.854 255.997 382.619C255.762 382.384 255.409 382.267 255.174 382.267C254.822 382.267 254.469 382.384 254.234 382.619C253.999 382.854 253.881 383.207 253.881 383.559Z" fill="#C7C7C7"/>
<path d="M262.812 383.559V385.44C262.812 385.675 262.577 385.91 262.342 385.91C262.107 385.91 261.872 385.675 261.872 385.557C261.519 385.792 261.049 385.91 260.579 385.91C259.992 385.91 259.404 385.675 258.934 385.205C258.582 384.735 258.346 384.147 258.346 383.559C258.346 382.854 258.582 382.384 258.934 381.914C259.287 381.444 259.874 381.209 260.579 381.209C261.049 381.209 261.519 381.327 261.872 381.679C261.872 381.444 262.107 381.209 262.342 381.209C262.577 381.209 262.812 381.444 262.812 381.679V383.559ZM261.872 383.559C261.872 383.207 261.754 382.854 261.519 382.619C261.284 382.384 260.932 382.267 260.697 382.267C260.344 382.267 259.992 382.384 259.874 382.619C259.639 382.854 259.522 383.207 259.522 383.559C259.522 383.912 259.639 384.265 259.874 384.5C260.109 384.735 260.462 384.852 260.697 384.852C261.049 384.852 261.402 384.735 261.519 384.5C261.754 384.265 261.872 383.912 261.872 383.559Z" fill="#C7C7C7"/>
<path d="M268.923 385.439C268.923 385.674 268.688 385.909 268.453 385.909C268.218 385.909 267.983 385.674 267.983 385.557C267.63 385.792 267.16 385.909 266.69 385.909C265.398 385.909 264.458 384.852 264.458 383.559C264.458 382.267 265.515 381.209 266.69 381.209C267.16 381.209 267.63 381.327 267.983 381.562V379.799C267.983 379.564 268.218 379.329 268.453 379.329C268.688 379.329 268.923 379.564 268.923 379.799V383.559V385.439ZM266.69 382.267C266.338 382.267 265.985 382.384 265.868 382.619C265.633 382.854 265.515 383.207 265.515 383.559C265.515 383.912 265.633 384.264 265.868 384.499C266.103 384.734 266.455 384.852 266.69 384.852C267.043 384.852 267.395 384.734 267.63 384.499C267.865 384.264 267.983 383.912 267.983 383.559C267.983 383.207 267.865 382.854 267.63 382.619C267.278 382.384 267.043 382.267 266.69 382.267Z" fill="#C7C7C7"/>
<path d="M271.507 384.617C271.86 384.617 272.212 384.969 272.212 385.322C272.212 385.675 271.86 386.027 271.507 386.027C271.155 386.027 270.802 385.675 270.802 385.322C270.802 384.852 271.037 384.617 271.507 384.617Z" fill="#C7C7C7"/>
<path d="M273.623 384.617C273.976 384.617 274.328 384.969 274.328 385.322C274.328 385.675 273.976 386.027 273.623 386.027C273.271 386.027 272.918 385.675 272.918 385.322C272.918 384.852 273.271 384.617 273.623 384.617Z" fill="#C7C7C7"/>
<path d="M275.739 384.617C276.091 384.617 276.444 384.969 276.444 385.322C276.444 385.675 276.091 386.027 275.739 386.027C275.386 386.027 275.033 385.675 275.033 385.322C275.151 384.852 275.386 384.617 275.739 384.617Z" fill="#C7C7C7"/>
<path d="M329.794 392.725H183.847V401.891H329.794V392.725Z" fill="#EBEBEB"/>
<path d="M232.849 394.37H185.61V400.363H232.849V394.37Z" fill="#FE9563"/>
<path opacity="0.1" d="M195.128 394.37H190.193L185.61 400.363H190.545L195.128 394.37Z" fill="black"/>
<path opacity="0.1" d="M204.529 394.37H199.711L195.01 400.363H199.946L204.529 394.37Z" fill="black"/>
<path opacity="0.1" d="M214.047 394.37H209.112L204.529 400.363H209.347L214.047 394.37Z" fill="black"/>
<path opacity="0.1" d="M223.448 394.37H218.512L213.929 400.363H218.865L223.448 394.37Z" fill="black"/>
<path opacity="0.1" d="M232.848 394.37H228.03L223.33 400.363H228.265L232.848 394.37Z" fill="black"/>
<path opacity="0.1" d="M280.088 400.363V400.246L279.971 400.363H280.088Z" fill="black"/>
<path d="M392.191 184.851C391.251 185.791 390.311 186.731 389.37 187.671C388.783 188.258 388.313 188.728 387.725 189.316C380.205 182.03 371.274 178.153 360.698 178.153C350.24 178.153 341.191 182.03 333.671 189.433C333.201 188.963 332.613 188.376 332.143 187.906C331.203 186.966 330.263 186.026 329.323 185.086C329.323 185.086 329.323 185.086 329.205 185.086C329.205 185.086 329.205 185.086 329.205 184.968C329.323 184.968 329.323 184.851 329.44 184.851C330.615 183.793 331.791 182.735 332.966 181.678C335.433 179.563 338.254 177.917 341.191 176.507C344.599 174.862 348.242 173.57 352.12 172.865C353.882 172.512 355.763 172.395 357.525 172.159C358.113 172.042 362.108 172.042 362.226 172.042C363.518 172.16 364.693 172.159 365.986 172.277C369.394 172.63 372.684 173.452 375.974 174.627C378.325 175.45 380.557 176.507 382.672 177.8C384.905 179.093 387.138 180.62 389.135 182.265C390.311 182.97 391.251 183.911 392.191 184.851Z" fill="#F6EDDF"/>
<path d="M342.602 198.129C341.074 196.601 339.664 195.191 338.136 193.781C343.189 188.845 349.182 185.672 356.115 184.732C366.574 183.322 375.622 186.495 383.26 193.781C381.732 195.308 380.322 196.718 378.795 198.246C373.742 193.428 367.749 190.725 360.698 190.725C353.765 190.608 347.654 193.193 342.602 198.129Z" fill="#F6EDDF"/>
<path d="M374.448 202.476C373.038 203.886 371.51 205.414 369.982 206.824C367.397 204.356 364.342 202.946 360.699 202.946C357.056 202.946 354.001 204.356 351.416 206.824C349.888 205.296 348.478 203.886 347.068 202.476C354.118 195.191 366.692 194.603 374.448 202.476Z" fill="#F6EDDF"/>
<path d="M364.811 210.937C364.811 213.17 363.049 214.933 360.816 214.933C358.583 214.933 356.821 213.17 356.821 210.937C356.821 208.705 358.583 206.942 360.816 206.942C362.931 206.942 364.811 208.705 364.811 210.937Z" fill="#F6EDDF"/>
<path d="M122.505 470.283L118.98 518.58C118.98 527.98 119.098 536.324 119.568 540.554C119.568 540.554 119.568 540.554 119.568 540.671C119.685 542.317 119.92 543.374 120.273 543.609C120.273 543.609 120.273 543.609 120.273 543.727C123.093 545.607 198.652 548.192 201.237 547.487C203.94 546.664 201.825 539.026 199.004 536.559C196.184 534.091 167.629 520.225 167.629 520.225L170.684 471.928L122.505 470.283Z" fill="#774442"/>
<path d="M201.355 547.252C198.652 548.075 123.21 545.489 120.39 543.492C120.39 543.492 120.39 543.492 120.273 543.374C120.038 543.139 119.803 542.082 119.568 540.436C119.568 540.436 119.568 540.436 119.568 540.319C119.098 535.971 118.98 527.745 118.98 518.345C118.98 518.345 119.568 510.001 120.273 500.248L168.804 502.481L167.747 519.872C167.747 519.872 196.184 533.738 199.122 536.206C201.942 538.909 204.057 546.547 201.355 547.252Z" fill="#EBEBEB"/>
<path d="M201.707 547.487C199.004 548.309 122.27 546.194 119.45 544.196C118.392 543.491 118.157 517.757 119.685 504.713L169.039 506.593C169.039 506.593 168.921 519.872 169.509 520.107C174.327 522.574 196.771 534.09 199.356 536.323C202.294 538.791 204.409 546.664 201.707 547.487Z" fill="#FE9563"/>
<path d="M200.767 544.314C187.959 543.491 136.019 541.494 123.328 541.729C123.211 541.729 123.211 541.846 123.328 541.846C136.019 542.904 187.959 544.549 200.767 544.667C201.002 544.549 201.002 544.314 200.767 544.314Z" fill="#263238"/>
<path d="M194.657 533.386C191.602 533.151 188.547 534.443 186.902 536.206C185.257 537.851 183.729 540.319 183.729 542.904C183.729 543.021 183.847 543.021 183.847 542.904C184.787 537.851 189.487 533.621 194.657 533.503C194.775 533.621 194.775 533.386 194.657 533.386Z" fill="#263238"/>
<path d="M172.682 521.164C167.512 520.929 161.519 522.457 158.111 526.57C157.993 526.687 158.228 526.922 158.346 526.805C163.046 524.572 167.629 522.927 172.682 521.752C173.035 521.634 173.035 521.164 172.682 521.164Z" fill="#263238"/>
<path d="M176.56 522.81C171.39 522.575 165.397 524.102 161.989 528.215C161.872 528.333 162.107 528.568 162.224 528.45C166.925 526.217 171.507 524.572 176.56 523.397C176.913 523.397 176.913 522.81 176.56 522.81Z" fill="#263238"/>
<path d="M180.439 524.454C175.268 524.219 169.275 525.747 165.867 529.86C165.75 529.977 165.985 530.212 166.102 530.095C170.803 527.862 175.386 526.217 180.439 525.042C180.909 525.042 180.791 524.572 180.439 524.454Z" fill="#263238"/>
<path d="M184.316 526.217C179.145 525.982 173.152 527.51 169.744 531.623C169.627 531.74 169.862 531.975 169.979 531.858C174.68 529.625 179.263 527.98 184.316 526.805C184.786 526.805 184.786 526.217 184.316 526.217Z" fill="#263238"/>
<path d="M127.558 509.766C121.8 509.531 121.448 518.579 127.206 518.697C133.081 518.932 133.434 509.884 127.558 509.766Z" fill="#263238"/>
<path d="M178.676 507.651C176.208 505.419 172.801 507.416 171.155 509.531C170.45 510.471 169.745 511.647 169.04 512.822C167.63 515.407 166.572 518.345 166.102 521.165C166.102 521.4 165.985 521.635 165.985 521.87C165.985 521.987 165.985 521.987 165.985 521.987C165.985 522.222 165.867 522.34 165.867 522.575C165.867 522.692 165.985 522.693 165.985 522.693C166.102 522.928 166.22 523.163 166.455 523.163C166.572 523.163 166.69 523.163 166.808 523.163C167.865 522.457 168.923 521.87 169.98 521.165L170.568 520.812C173.153 519.167 175.738 517.522 177.736 515.172C179.734 513.057 181.144 509.766 178.676 507.651ZM171.978 518.345C171.155 518.932 170.333 519.402 169.393 519.99C168.57 520.46 167.748 521.047 167.043 521.635C166.925 521.635 166.925 521.752 166.808 521.87C166.69 521.987 166.572 521.987 166.572 522.105C166.572 521.987 166.69 521.87 166.69 521.87C167.513 519.872 168.218 517.875 169.158 515.877C169.275 515.524 169.51 515.054 169.745 514.702C170.333 513.527 171.038 512.352 171.743 511.294C172.918 509.649 178.088 505.536 178.441 511.176C178.559 513.997 174.211 516.817 171.978 518.345Z" fill="#263238"/>
<path d="M167.041 522.222C167.158 522.105 167.158 522.105 167.041 521.987C166.923 521.87 166.806 521.752 166.688 521.752L166.571 521.635C166.453 521.517 166.218 521.282 166.101 521.165C163.045 518.462 158.815 516.229 154.82 515.289C152.117 514.702 148.239 515.289 147.769 518.58C147.299 521.752 150.472 523.515 153.057 523.985C155.642 524.455 158.345 524.338 161.048 523.985C162.928 523.75 164.808 523.397 166.571 523.28C167.158 523.045 167.276 522.575 167.041 522.222ZM159.755 522.575C157.17 522.81 151.882 523.397 150.119 520.93C146.829 516.347 153.41 516.229 155.407 516.817C156.7 517.169 157.875 517.639 159.168 518.227C161.635 519.285 163.868 520.577 166.101 521.87C166.218 521.87 166.218 521.987 166.336 521.987C166.218 521.987 166.101 521.987 166.101 521.987C165.866 521.987 165.631 521.987 165.278 521.987C163.398 522.105 161.635 522.34 159.755 522.575Z" fill="#263238"/>
<path d="M118.979 497.545L173.033 499.778C173.033 499.778 175.501 424.336 174.326 392.726C173.033 358.296 158.227 255.709 158.227 255.709H113.573C113.573 255.709 124.972 358.648 125.207 393.078C125.442 425.041 118.979 497.545 118.979 497.545Z" fill="#37474F"/>
<path d="M149.414 255.709L122.622 348.542C119.449 304.593 113.573 255.709 113.573 255.709H149.414Z" fill="#263238"/>
<path d="M122.034 260.761L124.854 291.314L127.439 321.984C129.084 342.431 130.73 362.878 131.905 383.324C132.257 388.495 132.375 393.548 132.257 398.718C132.14 403.889 131.905 408.942 131.67 414.112C131.2 424.335 130.495 434.559 129.672 444.782C128.849 455.006 126.029 485.088 126.029 485.088C126.029 485.088 128.144 455.006 128.732 444.782C129.319 434.559 130.025 424.335 130.495 414.112C130.73 408.942 130.965 403.889 130.965 398.718C130.965 393.665 130.847 388.495 130.495 383.442C129.437 362.995 127.792 342.548 126.264 322.102L122.034 260.761Z" fill="#263238"/>
<path d="M171.272 489.671C163.046 489.084 165.396 489.201 157.171 488.731C153.175 488.496 126.618 486.969 122.858 487.439C122.74 487.439 122.74 487.556 122.858 487.556C126.618 488.379 153.175 489.319 157.171 489.554C165.396 489.906 163.046 489.671 171.272 489.906C171.389 489.906 171.507 489.671 171.272 489.671Z" fill="#263238"/>
<path d="M36.7218 442.903L12.0446 484.619C7.81429 493.079 4.17148 500.483 2.76135 504.595C2.76135 504.595 2.76135 504.595 2.76135 504.713C2.1738 506.241 1.93878 507.298 2.05629 507.651C2.05629 507.651 2.05629 507.651 2.05629 507.768C3.70143 510.706 70.2121 546.664 72.9149 547.134C75.6176 547.604 77.2627 539.848 75.7351 536.441C74.2075 533.033 54.9358 507.886 54.9358 507.886L79.1429 466.052L36.7218 442.903Z" fill="#774442"/>
<path d="M72.9149 547.017C70.2121 546.546 3.70143 510.588 2.05629 507.651C2.05629 507.651 2.05629 507.651 2.05629 507.533C1.93878 507.181 2.1738 506.123 2.76135 504.595C2.76135 504.595 2.76135 504.595 2.76135 504.478C4.28899 500.483 7.81429 492.962 12.0446 484.501C12.0446 484.501 16.275 477.216 21.3279 468.872L63.7491 492.492L55.0533 507.651C55.0533 507.651 74.325 532.798 75.8526 536.206C77.2627 539.731 75.7351 547.487 72.9149 547.017Z" fill="#EBEBEB"/>
<path d="M73.2669 547.251C70.4467 546.781 2.76087 510.706 1.11573 507.65C0.52818 506.475 11.6916 483.326 18.8598 472.397L62.221 496.135C62.221 496.135 56.228 508.003 56.698 508.473C59.9883 512.821 74.9121 533.15 76.2047 536.323C77.6148 539.848 75.9696 547.721 73.2669 547.251Z" fill="#FE9563"/>
<path d="M73.737 544.079C62.5736 537.616 17.0972 512.704 5.58117 507.181C5.46366 507.181 5.46366 507.181 5.58117 507.298C16.5096 513.879 62.221 538.438 73.6195 544.314C73.8545 544.314 73.972 544.196 73.737 544.079Z" fill="#263238"/>
<path d="M73.149 531.505C70.5638 529.978 67.2735 529.743 64.9233 530.565C62.6906 531.388 60.3404 532.798 59.1653 535.266C59.1653 535.383 59.2828 535.383 59.2828 535.383C62.3381 531.27 68.4486 529.625 73.149 531.74C73.149 531.74 73.2665 531.623 73.149 531.505Z" fill="#263238"/>
<path d="M58.93 510.706C54.4646 508.121 48.3541 506.946 43.5362 509.061C43.3011 509.178 43.4186 509.413 43.6537 509.413C48.9416 509.531 53.642 510.118 58.695 511.294C59.0475 511.411 59.2825 510.941 58.93 510.706Z" fill="#263238"/>
<path d="M61.634 513.996C57.1686 511.411 51.058 510.236 46.2401 512.351C46.0051 512.468 46.1226 512.703 46.3576 512.703C51.6456 512.821 56.346 513.409 61.3989 514.584C61.7515 514.701 61.9865 514.114 61.634 513.996Z" fill="#263238"/>
<path d="M64.4534 517.287C59.9881 514.702 53.8775 513.527 49.0596 515.642C48.8246 515.759 48.9421 515.994 49.1771 515.994C54.4651 516.112 59.1655 516.7 64.2184 517.875C64.5709 517.992 64.6885 517.405 64.4534 517.287Z" fill="#263238"/>
<path d="M67.1563 520.459C62.6909 517.874 56.5804 516.699 51.7624 518.814C51.5274 518.932 51.6449 519.167 51.88 519.167C57.1679 519.284 61.8683 519.872 66.9212 521.047C67.2738 521.164 67.5088 520.694 67.1563 520.459Z" fill="#263238"/>
<path d="M23.6774 480.506C18.6245 477.803 14.2766 485.676 19.4471 488.379C24.5 491.082 28.7304 483.209 23.6774 480.506Z" fill="#263238"/>
<path d="M70.3298 501.306C69.0372 498.133 65.1594 498.485 62.6916 499.661C61.6341 500.248 60.459 500.836 59.4014 501.658C56.9337 503.421 54.701 505.536 53.0558 507.886C52.9383 508.121 52.8208 508.239 52.7033 508.474C52.5858 508.474 52.5858 508.591 52.5858 508.591C52.4683 508.709 52.3508 508.826 52.2332 509.061C52.2332 509.179 52.2332 509.296 52.3508 509.296C52.3508 509.531 52.3508 509.884 52.5858 510.001C52.7033 510.119 52.8208 510.119 52.9383 510.119C54.1134 510.001 55.406 509.884 56.6986 509.766H57.4037C60.459 509.531 63.5142 509.179 66.3345 507.886C68.8022 506.711 71.6224 504.361 70.3298 501.306ZM59.6364 507.886C58.5788 508.004 57.6387 508.121 56.6986 508.239C55.7586 508.356 54.8185 508.474 53.8784 508.591C53.7609 508.591 53.6434 508.591 53.5259 508.591C53.4083 508.591 53.2908 508.591 53.1733 508.591C53.2908 508.474 53.2908 508.474 53.4083 508.356C55.0535 506.946 56.5811 505.419 58.3438 504.126C58.6963 503.891 59.0488 503.538 59.4014 503.303C60.459 502.598 61.5165 501.776 62.6916 501.188C64.4543 500.248 71.0349 498.838 68.8022 504.008C67.392 506.946 62.2216 507.534 59.6364 507.886Z" fill="#263238"/>
<path d="M53.4074 509.296C53.5249 509.296 53.5249 509.179 53.5249 509.061C53.5249 508.944 53.4074 508.826 53.4074 508.709V508.591C53.2899 508.356 53.2899 508.121 53.1723 508.004C51.6447 504.126 48.8245 500.248 45.7692 497.663C43.654 495.9 39.8937 494.725 38.0135 497.428C36.1334 500.013 38.2486 503.068 40.3637 504.596C42.4789 506.241 44.9466 507.299 47.5319 508.121C49.2945 508.709 51.0572 509.296 52.8198 509.884C53.0548 510.001 53.4074 509.649 53.4074 509.296ZM46.8268 506.241C44.3591 505.301 39.4237 503.421 38.9536 500.366C38.0135 494.843 44.0066 497.663 45.5342 499.073C46.4743 499.896 47.4144 500.953 48.2369 501.893C49.8821 503.891 51.2922 506.124 52.8198 508.239C52.8198 508.356 52.9373 508.356 52.9373 508.474C52.8198 508.474 52.8198 508.356 52.7023 508.356C52.4673 508.239 52.2323 508.121 51.9972 508.004C50.2346 507.534 48.4719 506.946 46.8268 506.241Z" fill="#263238"/>
<path d="M153.644 255.709C153.409 256.649 150.354 271.103 147.063 283.559C144.713 292.607 142.245 300.598 140.953 301.42C139.425 302.36 131.669 305.768 129.084 306.826C129.084 306.826 111.81 392.961 102.762 419.636C94.4188 444.313 70.6818 491.317 70.6818 491.317L21.5626 464.289C21.5626 464.289 48.4724 417.873 52.7027 405.887C59.1658 387.32 83.1378 296.602 83.1378 296.602C83.1378 296.602 82.9028 268.165 92.5386 255.827H153.644V255.709Z" fill="#37474F"/>
<path d="M72.6808 480.153C65.5127 476.158 67.6279 477.215 60.3422 473.22C56.8169 471.34 33.4324 458.649 29.7896 457.356C29.6721 457.356 29.6721 457.474 29.6721 457.474C32.7274 459.824 56.2294 472.045 59.8722 473.925C67.1578 477.685 65.1602 476.51 72.4458 480.271C72.6808 480.388 72.7983 480.271 72.6808 480.153Z" fill="#263238"/>
<path d="M96.0657 288.612C97.4758 288.259 98.8859 288.142 100.296 287.907C101.471 287.672 102.529 287.554 103.704 287.319C105.819 286.849 107.934 286.144 109.697 284.851C111.695 283.324 112.635 280.974 113.575 278.858C114.162 277.566 114.75 276.273 115.337 274.981C115.572 274.393 115.925 273.688 116.16 273.1C116.512 272.395 116.982 271.573 117.217 270.868C117.217 270.75 117.453 270.868 117.335 270.868C117.1 271.338 116.982 271.925 116.865 272.513C116.63 273.1 116.512 273.805 116.277 274.393C115.925 275.568 115.572 276.626 115.22 277.801C114.515 279.798 113.927 281.914 112.87 283.794C110.754 287.084 107.112 288.494 103.351 288.964C102.294 289.082 101.236 289.199 100.179 289.199C98.8859 289.317 97.4758 289.434 96.0657 289.199C95.9482 288.964 95.8307 288.612 96.0657 288.612Z" fill="#263238"/>
<path d="M144.95 299.422C139.427 301.303 134.139 304.005 129.086 306.825C128.851 306.943 128.968 307.296 129.203 307.178C134.491 304.945 140.014 302.713 145.185 300.127C145.655 299.892 145.42 299.305 144.95 299.422Z" fill="#263238"/>
<path d="M146.594 262.994C146.594 262.759 146.241 262.759 146.241 262.994C146.241 269.34 145.889 274.863 145.301 280.738C145.066 283.441 142.834 298.6 138.133 297.542C137.311 297.307 136.958 296.602 136.841 295.427C136.723 294.017 137.193 292.254 137.428 290.727C137.898 287.554 138.368 284.381 138.603 281.208C139.073 275.215 139.191 269.222 138.368 263.229C138.368 262.994 138.016 262.994 138.016 263.229C138.016 271.455 137.781 279.798 136.606 288.024C136.018 292.019 134.02 297.895 138.133 298.482C142.364 299.07 145.066 289.199 145.536 286.496C147.064 278.858 147.182 270.633 146.594 262.994Z" fill="#263238"/>
<path d="M138.251 298.012C137.781 299.07 137.429 300.127 137.194 301.185C136.959 302.008 136.606 302.948 136.724 303.77C136.724 303.888 136.959 304.005 137.076 303.888C137.664 303.183 137.899 302.243 138.134 301.42C138.486 300.48 138.839 299.54 139.192 298.482C139.427 297.66 138.486 297.307 138.251 298.012Z" fill="#263238"/>
<path d="M33.7857 457.473C40.9538 443.96 52.2348 422.808 55.7601 416.227C59.1679 409.647 61.5181 402.714 63.7507 395.545C68.2161 381.092 72.4465 366.638 76.3243 352.067C80.3197 337.496 83.9625 322.807 87.4878 308.118C88.3104 304.475 89.3679 300.715 90.073 297.072C90.7781 293.194 90.543 289.669 90.073 285.791C89.603 282.266 89.4855 278.741 89.9555 275.215C90.543 271.69 91.3656 268.282 92.4232 264.874C93.0108 263.112 93.5983 261.349 94.1859 259.586C94.3034 259.351 94.5384 259.469 94.5384 259.704C92.4232 266.872 90.1905 274.04 90.6606 281.561C90.8956 285.204 91.8357 288.729 91.8357 292.372C91.7181 296.014 90.7781 299.54 89.9555 303.065C86.5477 317.871 82.7874 332.56 78.9095 347.249C75.0317 361.938 70.8014 376.509 66.4535 390.963C64.3383 398.013 62.3406 405.181 59.2854 411.879C56.2301 418.577 44.7141 439.259 37.076 452.538C36.1359 454.183 35.0783 455.828 34.1382 457.591C33.9032 457.708 33.6682 457.591 33.7857 457.473Z" fill="#263238"/>
<path d="M129.437 180.268C144.831 188.728 171.036 204.357 181.729 205.532C189.955 206.472 228.616 180.855 240.249 170.867C243.774 167.812 223.798 145.72 219.685 148.657C208.404 156.766 177.969 175.802 176.676 176.037C171.623 176.977 151.529 171.337 133.55 167.929C113.456 164.169 121.916 176.155 129.437 180.268Z" fill="#774442"/>
<path d="M157.404 197.777L169.625 175.097C169.625 175.097 139.543 165.814 125.911 166.872C112.28 168.047 120.741 175.215 127.674 180.033C134.372 184.851 157.404 197.777 157.404 197.777Z" fill="#C7C7C7"/>
<path d="M157.404 197.777L169.625 175.097C169.625 175.097 139.543 165.814 125.911 166.872C112.28 168.047 120.741 175.215 127.674 180.033C134.372 184.851 157.404 197.777 157.404 197.777Z" fill="#FE9563"/>
<path d="M169.51 175.215L169.392 175.45C169.157 175.332 168.805 175.215 168.57 175.097C168.1 174.98 167.747 174.745 167.277 174.627L165.984 174.157C165.514 174.039 165.044 173.922 164.574 173.804L163.869 173.687C163.634 173.687 163.399 173.569 163.164 173.569C159.521 172.982 155.644 173.334 152.118 174.392C148.593 175.45 145.185 177.212 142.012 179.092C139.545 180.62 137.077 182.265 134.727 183.91C134.609 184.028 134.492 184.145 134.374 184.145C134.257 184.263 134.257 184.263 134.139 184.263C134.022 184.145 133.787 184.028 133.669 184.028C133.787 184.028 133.904 183.91 133.904 183.91C134.022 183.793 134.139 183.793 134.257 183.675C136.724 182.03 139.192 180.268 141.777 178.74C144.95 176.86 148.358 175.097 152.001 174.039C155.526 172.982 159.286 172.747 162.812 173.217C165.867 174.039 168.217 174.745 169.04 174.98C169.275 175.097 169.392 175.097 169.51 175.215ZM161.519 189.081C158.229 190.138 154.938 191.431 151.766 192.724C151.178 192.959 150.473 193.194 149.886 193.429C150.121 193.546 150.238 193.664 150.473 193.781C150.943 193.546 151.531 193.429 152.001 193.194C155.173 191.901 158.464 190.608 161.637 189.433C161.754 189.433 161.872 189.316 161.872 189.316L162.107 188.728C161.989 188.846 161.754 188.963 161.519 189.081ZM134.727 183.91C134.609 183.793 134.492 183.675 134.257 183.675C133.082 182.853 131.789 182.265 130.496 181.795C130.261 181.678 129.909 181.678 129.674 181.56C130.026 181.795 130.496 182.03 130.849 182.265C131.906 182.618 132.964 183.205 133.904 183.793C134.022 183.91 134.139 184.028 134.374 184.028C134.727 184.263 134.962 184.498 135.314 184.733C135.549 184.968 135.902 185.203 136.137 185.438C136.607 185.79 137.194 186.026 137.782 186.378C137.077 185.673 136.372 184.968 135.549 184.38C135.314 184.263 134.962 184.028 134.727 183.91Z" fill="white"/>
<path d="M152.94 194.133C154.35 190.843 156.23 187.67 157.875 184.498C159.638 181.207 161.635 178.152 163.398 174.979C163.398 174.862 163.633 174.979 163.516 175.097C161.87 178.27 160.343 181.56 158.58 184.733C156.817 187.905 155.055 191.196 152.94 194.133C152.94 194.251 152.94 194.251 152.94 194.133Z" fill="#263238"/>
<path opacity="0.1" d="M163.633 186.143L157.405 197.776C157.405 197.776 134.491 184.85 127.558 180.15C123.327 177.212 118.627 173.452 118.627 170.631L163.633 186.143Z" fill="black"/>
<path d="M85.1366 264.64C85.3716 264.875 158.58 263.582 159.285 262.76C160.226 261.585 150.002 193.311 139.661 175.097C134.726 166.402 121.212 161.701 113.339 175.215C94.5374 207.413 84.5491 263.935 85.1366 264.64Z" fill="#FE9563"/>
<path d="M159.168 260.175C158.815 260.175 158.463 260.175 158.11 260.175C157.875 260.175 157.64 260.175 157.405 260.175H156.7C156.23 260.175 155.76 260.175 155.29 260.057L153.88 259.822C153.41 259.822 152.94 259.705 152.47 259.587C151.53 259.47 150.59 259.117 149.767 258.882C148.827 258.529 148.004 258.294 147.182 257.824C146.359 257.472 145.537 257.002 144.597 256.532C143.774 256.062 142.951 255.592 142.246 255.122C141.424 254.652 140.719 254.064 139.896 253.477C139.191 252.889 138.369 252.301 137.663 251.714C136.841 251.009 136.018 250.304 135.196 249.599C135.078 249.481 134.961 249.481 134.961 249.364C133.081 247.719 131.2 245.956 129.438 244.193C126.735 241.608 124.032 239.023 121.095 236.673C119.684 235.498 118.157 234.44 116.512 233.617C116.159 233.382 115.807 233.265 115.454 233.147C115.337 233.03 115.102 233.03 114.984 232.912C113.809 232.442 112.516 232.09 111.224 231.855C110.754 231.855 110.284 231.737 109.814 231.737H108.403C107.933 231.737 107.463 231.737 106.993 231.855L105.583 231.972L104.878 232.09L104.173 232.207L102.763 232.442C101.823 232.677 101 232.912 100.06 233.265C99.7077 233.382 99.2377 233.5 98.8852 233.735C98.6501 233.852 98.5326 233.852 98.4151 233.97C97.24 234.44 96.0649 235.027 95.0073 235.615C93.4797 236.438 91.8345 237.143 90.1894 237.848C90.1894 237.73 90.1894 237.613 90.3069 237.613C91.8345 237.025 93.3622 236.203 94.8898 235.38C95.9474 234.792 97.005 234.322 98.0626 233.852C98.1801 233.735 98.4151 233.735 98.5326 233.617C99.0027 233.382 99.4727 233.265 99.9427 233.03C100.883 232.677 101.705 232.442 102.645 232.207L104.056 231.972L104.761 231.855L105.466 231.737L106.876 231.62C107.346 231.62 107.816 231.62 108.286 231.502H109.696C110.166 231.502 110.636 231.502 111.106 231.62C112.516 231.737 113.809 232.207 115.102 232.677C115.219 232.795 115.454 232.795 115.572 232.912C115.924 233.03 116.159 233.147 116.512 233.382C118.157 234.322 119.684 235.38 121.212 236.555C124.15 238.905 126.853 241.608 129.438 244.193C131.318 246.073 133.198 247.836 135.078 249.599C135.196 249.716 135.313 249.834 135.313 249.834C136.018 250.539 136.841 251.126 137.663 251.831C139.074 253.007 140.601 254.182 142.129 255.122C142.951 255.592 143.774 256.062 144.479 256.532C145.302 256.884 146.124 257.354 147.064 257.707C147.887 258.059 148.827 258.412 149.65 258.765C150.59 259 151.412 259.352 152.352 259.47C152.822 259.587 153.292 259.705 153.762 259.705L155.172 259.822C155.643 259.822 156.113 259.822 156.583 259.94H157.288C157.523 259.94 157.758 259.94 157.993 259.94C158.345 259.94 158.698 259.94 159.05 259.822C159.168 260.057 159.168 260.175 159.168 260.175ZM157.053 243.958C156.935 243.958 156.935 244.076 156.818 244.076C153.762 245.721 150.59 247.131 147.299 248.189C144.009 249.129 140.484 249.599 137.076 249.716C136.488 249.716 135.901 249.716 135.313 249.716C135.196 249.716 135.078 249.716 134.961 249.716C132.258 249.599 129.438 249.129 126.853 248.424C125.207 247.954 123.562 247.366 121.917 246.778C120.272 246.073 118.744 245.368 117.217 244.546C114.396 243.136 111.694 241.373 108.991 239.728C108.874 239.61 108.756 239.61 108.521 239.493C108.403 239.375 108.286 239.375 108.286 239.258C105.348 237.378 102.41 235.615 99.2377 234.087H99.1202C99.0027 233.97 98.8851 233.97 98.7676 233.852C96.6525 232.912 94.3023 232.207 92.0696 231.855C92.0696 231.972 91.9521 232.09 91.9521 232.207C92.7746 232.325 93.4797 232.442 94.3023 232.677C95.7124 233.03 97.005 233.5 98.2976 233.97C98.4151 233.97 98.5326 234.087 98.6501 234.087C98.7676 234.205 99.0027 234.205 99.1202 234.322C102.293 235.733 105.231 237.495 108.168 239.258C108.286 239.258 108.286 239.375 108.403 239.375C108.521 239.493 108.638 239.493 108.874 239.61C111.576 241.256 114.396 242.901 117.217 244.428C118.744 245.251 120.389 245.956 121.917 246.661C123.562 247.366 125.207 247.954 126.853 248.306C129.555 249.129 132.493 249.599 135.313 249.716C135.431 249.716 135.548 249.716 135.666 249.716C136.136 249.716 136.606 249.716 137.193 249.716C140.719 249.716 144.127 249.246 147.534 248.306C150.942 247.366 154.115 245.956 157.17 244.311C157.053 244.311 157.053 244.076 157.053 243.958ZM152.587 219.634C151.765 219.281 150.942 218.929 150.12 218.694C149.179 218.459 148.357 218.106 147.417 217.989C146.947 217.871 146.477 217.753 146.007 217.753L144.597 217.636C144.127 217.518 143.656 217.636 143.186 217.518H142.481C142.246 217.518 142.011 217.518 141.776 217.518C138.016 217.636 134.256 218.576 130.965 220.339C127.558 221.984 124.62 224.334 121.8 226.802C119.567 228.799 117.452 230.915 115.337 233.03C115.219 233.147 115.102 233.265 114.984 233.382L113.691 234.675C112.046 236.32 110.401 237.965 108.521 239.61C108.403 239.61 108.403 239.728 108.286 239.728C107.346 240.55 106.288 241.373 105.231 242.078C103.703 243.136 102.058 244.076 100.413 244.663C98.6501 245.368 96.8875 245.603 95.0073 245.603C93.1272 245.603 91.3645 245.368 89.4843 244.781C89.2493 244.663 89.0143 244.663 88.7793 244.546C88.7793 244.663 88.7793 244.781 88.6618 244.898C88.8968 245.016 89.1318 245.016 89.3668 245.133C91.247 245.603 93.1272 245.956 95.0073 245.956H95.7124H96.4174H97.1225L97.8276 245.838L98.5326 245.721C98.7676 245.721 99.0027 245.603 99.2377 245.486L99.9427 245.251C100.178 245.133 100.413 245.133 100.648 245.016C102.41 244.311 104.056 243.371 105.583 242.313C106.641 241.491 107.698 240.668 108.756 239.845C108.874 239.728 108.874 239.728 108.991 239.728C109.344 239.493 109.696 239.14 109.931 238.788C111.341 237.495 112.634 236.203 113.926 234.91C114.396 234.44 114.867 233.97 115.337 233.5C115.454 233.382 115.572 233.265 115.689 233.147C117.804 231.032 119.802 229.034 121.917 227.037C124.737 224.569 127.675 222.219 130.965 220.574C134.256 218.929 137.898 217.871 141.659 217.753C141.894 217.753 142.129 217.753 142.364 217.753H143.069C143.539 217.753 144.009 217.753 144.479 217.871L145.889 217.989C146.359 217.989 146.829 218.106 147.299 218.224C148.239 218.341 149.062 218.694 150.002 218.929C150.825 219.281 151.765 219.516 152.587 219.869C152.587 219.751 152.587 219.634 152.587 219.634ZM141.541 178.858C139.074 180.385 136.723 182.03 134.256 183.558C134.138 183.676 134.021 183.676 133.903 183.793C133.433 184.146 132.846 184.498 132.376 184.851C129.32 186.966 126.147 189.081 122.857 190.609C122.27 190.844 121.682 191.079 120.977 191.314C120.86 191.314 120.742 191.431 120.625 191.431C119.684 191.784 118.627 192.019 117.569 192.254C115.807 192.606 113.926 192.489 112.046 192.136C110.284 191.784 108.403 191.196 106.758 190.374C106.406 190.256 106.171 190.021 105.818 189.904C105.701 190.021 105.701 190.139 105.701 190.256C105.936 190.374 106.288 190.609 106.523 190.726C108.168 191.549 110.049 192.136 111.811 192.606L112.634 192.841L113.339 192.959L114.044 193.076H114.749H115.454C115.689 193.076 115.924 193.076 116.159 192.959L116.864 192.841C117.099 192.841 117.334 192.724 117.569 192.724C118.744 192.489 119.919 192.136 121.095 191.784C121.212 191.784 121.33 191.666 121.447 191.666C121.917 191.431 122.505 191.196 122.975 190.961C124.737 190.139 126.265 189.199 127.91 188.258C129.555 187.318 131.083 186.261 132.611 185.203C133.198 184.851 133.668 184.498 134.256 184.028C134.373 183.911 134.491 183.911 134.608 183.793C136.958 182.265 139.191 180.62 141.541 179.21C141.659 179.093 141.541 178.975 141.541 178.858ZM146.829 194.604C146.124 194.839 145.419 195.074 144.832 195.309C144.714 195.309 144.597 195.309 144.597 195.427C143.774 195.662 142.951 195.897 142.011 196.132C138.604 196.837 135.196 196.954 131.788 196.132C128.38 195.427 125.09 194.251 122.27 192.371C122.035 192.254 121.8 192.136 121.682 191.901C121.447 191.784 121.33 191.666 121.212 191.549C118.744 189.786 116.512 187.788 113.809 186.378C112.281 185.556 110.636 184.851 108.991 184.263C108.874 184.263 108.874 184.263 108.874 184.263C108.874 184.263 108.874 184.263 108.874 184.381C108.874 184.381 108.874 184.381 108.874 184.498C108.991 184.498 108.991 184.498 109.109 184.616C109.931 184.968 110.754 185.203 111.576 185.556C112.399 185.908 113.104 186.261 113.926 186.731C116.512 188.141 118.627 190.139 121.095 191.901C121.212 192.019 121.447 192.136 121.565 192.254C121.8 192.489 122.152 192.606 122.387 192.841C125.325 194.839 128.615 196.014 132.023 196.719C135.431 197.659 139.074 197.542 142.481 196.719C143.421 196.484 144.362 196.249 145.184 196.014C145.302 196.014 145.419 196.014 145.419 195.897C146.007 195.662 146.712 195.544 147.299 195.309C146.829 194.839 146.829 194.722 146.829 194.604ZM148.239 200.127C147.534 199.187 146.947 198.364 146.359 197.424C145.889 196.837 145.537 196.249 145.067 195.662C144.949 195.544 144.832 195.427 144.714 195.192C143.069 192.841 141.424 190.609 139.544 188.376C138.251 186.966 136.958 185.556 135.548 184.381C135.313 184.146 135.078 183.911 134.726 183.793C134.608 183.676 134.491 183.558 134.256 183.558C133.081 182.735 131.788 182.148 130.495 181.678C130.025 181.56 129.555 181.443 129.085 181.325L127.675 181.09C127.205 180.973 126.735 180.973 126.265 180.855L124.855 180.738H124.15H123.445H122.035C121.095 180.855 120.154 180.855 119.214 181.09C117.334 181.325 115.572 181.913 113.691 182.383C112.046 182.853 110.284 183.441 108.521 183.793C108.521 183.911 108.521 183.911 108.403 184.028C108.403 184.028 108.403 184.028 108.403 184.146C108.521 184.146 108.521 184.146 108.638 184.146C110.401 183.793 112.046 183.323 113.809 182.853C115.572 182.383 117.452 181.795 119.214 181.56C120.154 181.443 121.095 181.325 122.035 181.325H124.15H124.855L126.265 181.443C126.735 181.443 127.205 181.56 127.675 181.678L129.085 181.913C129.555 182.03 130.025 182.148 130.378 182.265C131.67 182.618 132.728 183.206 133.903 183.911C134.021 184.028 134.138 184.146 134.373 184.146C134.726 184.381 134.961 184.616 135.313 184.851C136.723 186.026 138.134 187.318 139.309 188.729C141.189 190.844 142.834 193.076 144.479 195.309C144.597 195.427 144.714 195.544 144.832 195.779C145.302 196.367 145.772 197.072 146.124 197.659C146.947 198.717 147.652 199.774 148.474 200.832C148.357 200.597 148.239 200.362 148.239 200.127Z" fill="white"/>
<path d="M134.727 180.856C131.437 181.208 124.269 175.685 121.214 170.632C120.979 170.28 121.331 166.637 121.566 162.054C121.684 159.351 121.801 156.296 121.684 153.476L139.31 156.884C139.31 156.884 137.9 162.759 138.135 167.695C138.135 168.047 138.252 168.517 138.252 168.87C138.252 168.87 138.252 168.987 138.252 169.105C138.84 171.22 139.898 180.268 134.727 180.856Z" fill="#774442"/>
<path d="M121.683 161.349C125.443 166.402 131.084 171.337 138.605 170.162C138.487 169.692 138.487 169.34 138.37 169.105C138.37 168.987 138.37 168.987 138.37 168.87C138.252 168.517 138.252 168.165 138.252 167.695C138.017 162.877 139.427 156.884 139.427 156.884L121.801 153.476C121.918 156.061 121.801 158.764 121.683 161.349Z" fill="#263238"/>
<path d="M117.102 133.616C115.457 139.962 119.687 157.706 124.27 161.466C130.968 166.989 141.427 166.989 146.01 159.116C150.357 151.478 144.599 128.446 139.546 125.038C131.908 119.985 119.452 124.333 117.102 133.616Z" fill="#774442"/>
<path d="M134.61 142.782L134.493 142.9C134.845 144.075 135.08 145.485 134.14 146.19V146.308C135.433 145.602 135.198 143.722 134.61 142.782Z" fill="#263238"/>
<path d="M133.2 141.725C131.203 142.077 132.143 145.955 133.905 145.603C135.785 145.368 134.845 141.49 133.2 141.725Z" fill="#263238"/>
<path d="M141.663 140.785C141.663 140.785 141.781 140.902 141.663 140.785C142.016 142.077 142.486 143.37 143.661 143.605V143.722C142.251 143.84 141.663 141.96 141.663 140.785Z" fill="#263238"/>
<path d="M142.368 139.375C144.248 138.787 145.305 142.548 143.543 143.135C141.897 143.605 140.84 139.845 142.368 139.375Z" fill="#263238"/>
<path d="M131.321 140.315C131.791 140.08 132.261 139.727 132.731 139.492C133.201 139.14 133.671 138.905 133.906 138.317C134.024 137.965 133.788 137.495 133.553 137.377C132.848 137.024 132.143 137.26 131.438 137.612C130.733 138.082 130.263 138.552 130.028 139.257C129.793 140.08 130.616 140.667 131.321 140.315Z" fill="#263238"/>
<path d="M143.425 137.495C142.837 137.495 142.367 137.495 141.779 137.495C141.192 137.495 140.604 137.495 140.134 137.142C139.899 136.907 139.782 136.437 139.899 136.085C140.252 135.379 141.074 135.262 141.779 135.262C142.602 135.262 143.19 135.497 143.895 135.967C144.6 136.437 144.13 137.495 143.425 137.495Z" fill="#263238"/>
<path d="M136.139 154.063C136.492 154.298 136.844 154.651 137.314 154.533C137.784 154.416 138.137 154.181 138.49 153.946H138.607C138.372 154.533 137.784 154.886 137.197 155.003C136.609 155.003 136.257 154.651 136.139 154.063C136.022 154.063 136.022 154.063 136.139 154.063Z" fill="#263238"/>
<path d="M136.492 150.186C137.432 151.126 138.49 151.361 139.665 151.361C140.135 151.361 140.722 151.243 141.192 151.126C141.31 151.126 141.428 151.126 141.428 151.008C141.545 151.008 141.545 150.891 141.663 150.891C141.78 150.891 141.898 150.656 141.898 150.538V150.421V150.303C141.663 149.363 141.31 147.953 141.31 147.953C141.663 148.071 143.543 148.423 143.425 147.953C142.25 144.075 140.957 139.61 138.96 135.967C138.842 135.85 138.725 135.967 138.725 136.085C139.665 139.845 141.31 143.488 142.368 147.366C141.78 147.248 140.84 147.131 140.252 147.248C140.135 147.366 141.075 149.951 141.192 150.303C139.665 150.891 138.372 150.656 136.727 149.951C136.492 150.068 136.375 150.186 136.492 150.186Z" fill="#263238"/>
<path d="M140.486 150.774C140.486 150.774 139.899 152.066 138.959 152.771C138.606 153.006 138.136 153.124 137.666 153.124C136.608 153.124 136.373 152.184 136.373 151.479C136.373 150.774 136.491 150.186 136.491 150.186C136.491 150.186 138.254 151.126 140.486 150.774Z" fill="#263238"/>
<path d="M138.959 152.771C138.606 153.006 138.136 153.124 137.666 153.124C136.608 153.124 136.373 152.184 136.373 151.479C137.431 151.243 138.606 151.714 138.959 152.771Z" fill="#FF99BA"/>
<path d="M118.159 148.775C117.454 147.248 110.639 130.561 110.874 128.564C110.991 126.801 112.989 127.153 112.989 127.036C112.989 126.918 112.871 125.391 113.694 124.568C114.516 123.863 115.809 124.333 115.809 124.333C115.809 124.333 115.809 122.688 116.867 121.983C117.807 121.395 118.982 122.101 118.982 122.101C118.982 122.101 119.099 120.455 120.392 119.868C121.685 119.28 122.507 120.338 122.507 120.338C122.507 120.338 122.742 118.693 123.8 118.223C124.857 117.753 125.915 118.81 125.915 118.81C125.915 118.81 126.267 117.283 127.56 117.048C128.853 116.813 129.558 118.223 129.558 118.223C129.558 118.223 130.145 116.695 131.32 116.46C132.495 116.225 133.2 117.753 133.2 117.753C133.2 117.753 133.553 116.343 134.728 116.225C135.903 116.107 136.373 117.753 136.373 117.753C136.373 117.753 136.491 116.46 137.901 116.695C140.134 117.048 142.719 127.858 143.894 132.206C143.894 132.206 142.484 129.034 141.661 129.151C140.721 129.269 140.251 130.679 138.723 131.384C136.491 132.324 132.025 130.091 128.853 131.266C125.797 132.441 123.917 136.084 123.565 141.255C123.095 147.013 119.804 152.418 118.159 148.775Z" fill="#263238"/>
<path d="M121.566 148.07C121.566 148.07 117.101 142.547 114.633 144.192C112.165 145.837 115.691 153.946 118.863 154.886C122.036 155.826 122.976 152.888 122.976 152.888L121.566 148.07Z" fill="#774442"/>
<path d="M115.69 146.542C117.923 147.365 119.216 149.245 120.156 151.242C119.451 150.537 118.511 150.067 117.57 150.89C117.57 150.89 117.57 151.007 117.688 151.007C118.511 150.772 119.216 150.89 119.803 151.477C120.273 151.947 120.626 152.535 120.978 153.123C121.096 153.358 121.448 153.24 121.331 153.005C121.096 150.302 118.746 146.542 115.69 146.542Z" fill="#263238"/>
<path d="M139.544 171.573C139.427 171.455 139.544 171.455 139.544 171.573C140.249 174.981 141.777 182.854 136.371 183.206C134.139 183.324 132.024 182.384 130.143 181.209C128.263 180.151 126.501 178.741 124.855 177.331C123.093 175.686 121.213 174.04 119.685 172.043C119.567 171.925 119.45 172.043 119.567 172.16C121.213 174.04 122.623 176.038 124.385 177.801C126.148 179.446 128.028 180.974 130.143 182.149C132.141 183.206 134.491 184.264 136.724 183.911C138.957 183.676 140.249 182.031 140.602 179.916C140.954 177.213 140.367 174.158 139.544 171.573Z" fill="#263238"/>
<path d="M306.396 145.021L141.653 160.386L153.909 291.783L318.651 276.417L306.396 145.021Z" fill="#263238"/>
<path d="M210.874 245.486L206.526 198.835L256.585 217.636L210.874 245.486Z" fill="#FE9563"/>
<path d="M159.301 165.383L149.59 166.289L150.234 173.192L159.945 172.286L159.301 165.383Z" fill="#FE9563"/>
<path d="M160.601 179.368L150.89 180.273L151.534 187.177L161.245 186.271L160.601 179.368Z" fill="#FE9563"/>
<path d="M161.89 193.235L152.179 194.14L152.822 201.044L162.534 200.138L161.89 193.235Z" fill="#FE9563"/>
<path d="M163.179 207.101L153.467 208.007L154.111 214.91L163.822 214.004L163.179 207.101Z" fill="#FE9563"/>
<path d="M164.478 221.086L154.767 221.991L155.411 228.895L165.122 227.989L164.478 221.086Z" fill="#FE9563"/>
<path d="M165.767 234.953L156.056 235.859L156.699 242.762L166.411 241.857L165.767 234.953Z" fill="#FE9563"/>
<path d="M167.056 248.82L157.344 249.726L157.988 256.629L167.7 255.724L167.056 248.82Z" fill="#FE9563"/>
<path d="M168.472 262.793L158.761 263.699L159.405 270.602L169.116 269.696L168.472 262.793Z" fill="white"/>
<path d="M169.761 276.661L160.049 277.566L160.693 284.47L170.405 283.564L169.761 276.661Z" fill="white"/>
<path d="M299.613 152.333L289.902 153.239L290.546 160.143L300.257 159.237L299.613 152.333Z" fill="#FE9563"/>
<path d="M300.902 166.201L291.19 167.107L291.834 174.01L301.546 173.104L300.902 166.201Z" fill="#FE9563"/>
<path d="M302.2 180.185L292.489 181.091L293.133 187.994L302.844 187.089L302.2 180.185Z" fill="#FE9563"/>
<path d="M303.489 194.052L293.778 194.958L294.422 201.861L304.133 200.955L303.489 194.052Z" fill="#FE9563"/>
<path d="M304.779 207.919L295.067 208.825L295.711 215.728L305.423 214.822L304.779 207.919Z" fill="#FE9563"/>
<path d="M306.079 221.903L296.367 222.809L297.011 229.712L306.723 228.807L306.079 221.903Z" fill="#FE9563"/>
<path d="M307.366 235.77L297.655 236.676L298.299 243.579L308.01 242.674L307.366 235.77Z" fill="#FE9563"/>
<path d="M308.655 249.638L298.943 250.543L299.587 257.447L309.299 256.541L308.655 249.638Z" fill="#FE9563"/>
<path d="M309.955 263.621L300.243 264.527L300.887 271.43L310.598 270.525L309.955 263.621Z" fill="#FE9563"/>
<path d="M127.087 189.081C130.26 198.247 142.716 235.615 144.479 237.378C151.882 244.193 170.683 256.297 172.916 258.764C176.089 262.172 161.988 283.089 157.052 282.501C155.055 282.266 129.907 265.815 122.152 257.707C115.924 251.244 112.633 209.528 112.398 190.139C112.398 173.452 120.859 171.219 127.087 189.081Z" fill="#774442"/>
<path d="M112.987 221.513L138.604 219.751C138.604 219.751 130.496 189.316 122.27 178.387C114.044 167.459 112.399 178.505 112.047 186.848C111.694 195.191 112.987 221.513 112.987 221.513Z" fill="#FE9563"/>
<path d="M138.133 218.106C135.901 218.459 133.668 219.281 131.67 220.339L130.73 220.456C130.848 220.339 130.965 220.339 130.965 220.339C133.198 219.164 135.548 218.341 138.016 217.989C138.016 217.871 138.133 217.989 138.133 218.106ZM127.675 188.024C126.147 188.964 124.502 189.904 122.857 190.609C122.269 190.844 121.682 191.079 120.977 191.314C120.859 191.314 120.742 191.431 120.624 191.431C119.684 191.784 118.627 192.019 117.569 192.254C115.806 192.606 113.926 192.489 112.046 192.136C112.046 192.136 112.046 192.136 111.928 192.136V192.606L112.634 192.841L113.339 192.959L114.044 193.077H114.749H115.454C115.689 193.077 115.924 193.077 116.159 192.959L116.864 192.841C117.099 192.841 117.334 192.724 117.569 192.724C118.744 192.489 119.919 192.136 121.094 191.784C121.212 191.784 121.329 191.666 121.447 191.666C121.917 191.431 122.504 191.196 122.974 190.961C124.62 190.256 126.265 189.316 127.792 188.376C127.792 188.376 127.675 188.141 127.675 188.024ZM130.848 195.779C127.792 195.074 124.737 193.899 122.152 192.136C121.917 192.019 121.682 191.901 121.564 191.666C121.329 191.549 121.212 191.431 121.094 191.314C118.627 189.551 116.394 187.554 113.691 186.143C113.221 185.908 112.751 185.673 112.164 185.438C112.164 185.556 112.164 185.556 112.164 185.673C112.634 185.908 113.104 186.143 113.574 186.378C116.159 187.789 118.274 189.786 120.742 191.549C120.859 191.666 121.094 191.784 121.212 191.901C121.447 192.136 121.799 192.254 122.034 192.489C124.737 194.369 127.91 195.544 131.083 196.249C130.965 196.132 130.848 195.897 130.848 195.779ZM123.915 180.855H123.562H122.152C121.212 180.973 120.272 180.973 119.332 181.208C117.451 181.443 115.689 182.031 113.809 182.501C113.339 182.618 112.751 182.853 112.281 182.971C112.281 183.088 112.281 183.206 112.281 183.206C112.869 183.088 113.339 182.853 113.926 182.736C115.689 182.266 117.569 181.678 119.332 181.443C120.272 181.326 121.212 181.208 122.152 181.208H124.15C124.032 181.09 124.032 180.973 123.915 180.855Z" fill="white"/>
<path d="M113.574 215.756C117.099 215.168 120.742 215.051 124.385 214.816C128.027 214.581 131.788 214.581 135.431 214.463C135.548 214.463 135.548 214.581 135.431 214.698C131.788 215.051 128.262 215.521 124.62 215.638C120.977 215.873 117.334 216.109 113.574 215.756C113.574 215.874 113.574 215.756 113.574 215.756Z" fill="#263238"/>
<path d="M110.989 199.892C111.224 201.42 111.459 202.947 111.811 204.475C111.811 201.302 111.811 198.012 111.929 194.839C111.929 194.722 112.046 194.722 112.046 194.839C112.399 199.304 112.634 203.77 112.751 208.235C112.869 212.583 113.221 216.931 112.986 221.161C113.339 221.161 113.574 221.161 113.927 221.279C114.044 221.279 114.044 221.514 113.927 221.514C113.574 221.514 113.104 221.631 112.751 221.631C112.634 221.631 112.516 221.514 112.516 221.396C112.046 216.931 111.929 212.466 111.929 208C111.929 207.295 111.929 206.59 111.929 205.768C111.459 203.77 111.106 201.772 110.871 199.775C110.754 199.775 110.989 199.657 110.989 199.892Z" fill="#263238"/>
<path d="M137.663 219.869L138.603 219.752L138.486 219.869C137.781 217.989 137.076 216.109 136.488 214.111C135.901 212.231 135.195 210.233 134.608 208.353C134.02 206.473 133.433 204.475 132.963 202.478C132.493 200.48 131.905 198.6 131.553 196.602C132.258 198.482 132.963 200.363 133.668 202.36C134.373 204.24 134.96 206.238 135.548 208.118C136.136 209.998 136.723 211.996 137.193 213.994C137.663 215.991 138.251 217.872 138.721 219.869V219.987H138.603L137.663 219.869Z" fill="#263238"/>
<path d="M133.785 198.717C134.02 199.657 134.138 200.597 134.255 201.655C134.255 202.595 134.255 203.652 134.138 204.592C133.903 203.652 133.785 202.712 133.668 201.655C133.55 200.714 133.55 199.774 133.785 198.717Z" fill="#263238"/>
<path d="M185.256 270.398C184.081 268.871 184.904 268.283 188.194 269.106C191.484 270.046 203.706 276.509 205.703 272.043C207.583 267.578 190.192 258.765 184.551 257.59C178.911 256.415 169.51 256.65 169.51 256.65C172.565 259 179.381 265.58 185.256 270.398Z" fill="#774442"/>
<path d="M154.351 280.857C163.164 288.73 173.74 295.898 186.078 297.073C188.546 297.308 189.956 296.251 189.956 296.251C195.479 296.956 197.359 294.488 197.359 294.488C202.647 293.548 204.292 290.845 204.292 290.845C204.292 290.845 208.758 290.845 208.993 287.672C209.228 284.617 202.06 282.149 197.007 278.977C185.373 271.691 172.565 259 169.392 256.532L154.351 280.857Z" fill="#774442"/>
<path d="M181.143 280.974C184.668 283.09 187.959 285.205 191.719 286.85C195.832 288.613 200.062 289.67 204.293 290.728C204.41 290.728 204.41 290.963 204.293 290.963C196.184 290.14 187.371 286.262 181.026 281.092C180.908 280.974 180.908 280.857 181.143 280.974Z" fill="#263238"/>
<path d="M175.738 287.32C179.263 289.2 185.374 292.372 197.477 294.37V294.488C189.487 294.253 182.318 291.785 175.62 287.555C175.385 287.32 175.503 287.202 175.738 287.32Z" fill="#263238"/>
<path d="M172.799 290.846C178.792 293.783 183.023 294.841 189.956 296.251V296.368C181.965 295.546 179.145 294.371 172.682 291.081C172.447 290.963 172.564 290.728 172.799 290.846Z" fill="#263238"/>
<path d="M216.513 147.953C220.979 145.838 226.384 140.55 230.027 140.08C233.317 139.727 234.492 142.43 234.492 142.43C234.492 142.43 236.255 138.787 239.663 138.905C241.425 139.022 242.836 141.842 242.836 141.842C242.836 141.842 244.363 139.022 247.301 139.257C249.651 139.492 250.709 142.312 250.709 142.312C250.709 142.312 253.411 140.315 255.762 141.255C260.462 143.37 260.58 163.699 253.059 166.872C249.534 168.4 249.769 163.347 249.769 163.347C249.769 163.347 247.653 170.397 243.423 170.515C239.193 170.632 239.898 164.169 239.898 164.169C239.898 164.169 237.783 170.985 233.435 170.75C228.852 170.397 230.732 164.052 230.732 164.052C230.732 164.052 227.677 168.635 224.386 167.577C218.981 165.932 225.797 157.354 224.621 152.771L217.218 150.303L216.513 147.953Z" fill="#774442"/>
<path d="M222.859 143.723C218.511 145.368 213.106 139.963 208.758 140.903C202.765 142.195 208.64 148.893 217.336 150.303H224.269L222.859 143.723Z" fill="#774442"/>
<path d="M250.827 142.665C250.827 142.548 250.944 142.548 250.827 142.665C252.59 149.363 252.355 157.237 249.769 163.7C249.652 163.935 249.299 163.817 249.299 163.582C250.709 156.414 251.415 149.951 250.827 142.665Z" fill="#263238"/>
<path d="M242.718 141.608C242.718 141.49 242.835 141.49 242.835 141.608C244.48 148.541 244.01 157.354 240.133 164.405C240.015 164.64 239.663 164.757 239.78 164.405C242.013 159.587 243.305 148.188 242.718 141.608Z" fill="#263238"/>
<path d="M230.38 164.522C233.788 157.589 234.728 150.303 234.493 142.548C234.493 142.43 234.61 142.43 234.61 142.548C235.668 146.308 235.315 151.126 234.728 155.004C234.14 158.646 232.848 161.819 230.615 164.639C230.498 164.757 230.263 164.639 230.38 164.522Z" fill="#263238"/>
</svg>
